<ttFont>
          <CharString index="0">
            -100 callsubr
            -31 24 -24 31 31 25 24 31 31 -25 25 -31 hvcurveto
            return
          </CharString>
          <CharString index="1">
            rmoveto
            160 vlineto
            311 -186 208 -288 -289 -184 -208 -311 vhcurveto
            -160 vlineto
            -311 186 -207 288 289 184 207 311 vhcurveto
            -53 162 rmoveto
            -162 vlineto
            -276 -153 -188 -267 -264 -156 188 276 vhcurveto
            162 vlineto
            274 154 188 265 266 155 -188 -274 vhcurveto
            endchar
          </CharString>
          <CharString index="2">
            rmoveto
            542 vlineto
            228 -159 114 -225 vhcurveto
            hintmask 10110110
            -233 -167 -147 -169 hvcurveto
            54 -2 rlineto
            150 150 114 196 211 119 -106 -180 vhcurveto
            -158 -259 vlineto
            hintmask 10111010
            -313 -187 -137 -193 -172 131 -122 202 215 139 101 117 72 hvcurveto
            hintmask 01111010
            -70 6 -77 14 -51 vhcurveto
            62 9 hlineto
            hintmask 10111010
            -18 44 -10 87 78 vvcurveto
            -480 -185 rmoveto
            -164 -115 106 131 164 170 115 279 hvcurveto
            256 -257 hlineto
            -159 -72 -145 -100 12 callsubr
            endchar
          </CharString>
          <CharString index="3">
            rmoveto
            hintmask 11101100
            90 29 61 67 86 vvcurveto
            138 -114 76 -146 -146 -112 -76 -138 -86 60 -66 90 -29 vhcurveto
            hintmask 11110010
            -104 -30 -71 -72 -95 vvcurveto
            -145 124 -74 161 157 125 74 145 94 -71 73 -104 29 vhcurveto
            hintmask 11101100
            -314 183 rmoveto
            102 88 62 117 116 91 -68 -96 -98 -90 -61 -115 -119 -88 61 98 vhcurveto
            hintmask 11110010
            207 -550 rmoveto
            -133 -98 61 109 105 98 67 131 129 101 -67 -105 -109 -99 -61 -129 hvcurveto
            endchar
          </CharString>
          <CharString index="4">
            rmoveto
            -162 -107 -127 -152 -141 99 -125 160 102 84 48 69 43 hvcurveto
            -198 -3 -103 -134 -239 hhcurveto
            -18 hlineto
            -1 -48 rlineto
            19 hlineto
            280 119 169 250 hvcurveto
            75 vlineto
            197 -97 117 -176 vhcurveto
            -5 -496 rmoveto
            -133 -75 105 113 118 82 110 132 134 84 -87 -172 hvcurveto
            -38 vlineto
            -72 -25 -75 -77 -124 hhcurveto
            endchar
          </CharString>
          <CharString index="5">
            58 hlineto
            -469 -62 callgsubr
            rlineto
            -63 hlineto
            -469 -47 callgsubr
            rlineto
            59 hlineto
            137 342 rlineto
            610 hlineto
            -588 54 rmoveto
            261 653 22 66 22 -65 262 -654 rlineto
            endchar
          </CharString>
          <CharString index="6">
            rmoveto
            -93 callgsubr
            445 -93 callsubr
            return
          </CharString>
          <CharString index="7">
            -31 -24 -25 -31 return
          </CharString>
          <CharString index="8">
            -55 hlineto
            -84 -55 -47 -66 vhcurveto
            -112 -36 124 -139 hhcurveto
            -99 -77 -69 -110 hvcurveto
            55 hlineto
            84 54 41 67 vhcurveto
            return
          </CharString>
          <CharString index="9">
            rmoveto
            -54 -790 hlineto
            -219 -161 -119 -214 -214 -162 119 219 vhcurveto
            790 -53 -790 vlineto
            -261 184 -130 245 244 185 130 261 vhcurveto
            endchar
          </CharString>
          <CharString index="10">
            rmoveto
            hintmask 11101100
            98 31 56 71 76 vvcurveto
            138 -101 80 -155 -147 -118 -87 -131 vhcurveto
            53 hlineto
            104 93 65 119 140 62 -74 -92 -87 -77 -72 -146 vhcurveto
            -71 -49 71 hlineto
            hintmask 11110010
            142 100 -48 -119 -108 -79 -65 -137 -134 -99 74 106 hvcurveto
            -54 hlineto
            -156 149 -72 138 155 115 81 141 96 -60 70 -113 27 vhcurveto
            endchar
          </CharString>
          <CharString index="11">
            rmoveto
            -761 vlineto
            -156 -29 -105 -131 -241 hhcurveto
            -173 -127 94 265 hvcurveto
            689 -54 -687 vlineto
            -302 144 -113 212 188 121 75 120 64 vhcurveto
            return
          </CharString>
          <CharString index="12">
            745 rmoveto
            hintmask 11101100
            158 49 112 126 166 vvcurveto
            253 -190 137 -235 -238 -182 -137 -253 -166 108 -126 160 -49 vhcurveto
            hintmask 11110010
            -182 -49 -127 -136 -181 vvcurveto
            -265 202 -134 263 257 206 134 265 181 -130 137 -182 48 vhcurveto
            hintmask 11101100
            -521 346 rmoveto
            206 157 125 209 205 166 -137 -194 -197 -164 -122 -205 -211 -157 122 197 vhcurveto
            hintmask 11110010
            370 -1057 rmoveto
            -233 -178 120 220 210 178 134 231 227 183 -134 -210 -220 -181 -120 -227 hvcurveto
            endchar
          </CharString>
          <CharString index="13">
            395 631 rlineto
            -69 hlineto
            -364 -581 -439 581 rlineto
            -68 hlineto
            246 -325 rlineto
            -138 -61 -72 -129 -186 vvcurveto
            -456 59 456 vlineto
            168 59 114 121 55 vhcurveto
            600 -793 rlineto
            return
          </CharString>
          <CharString index="14">
            hmoveto
            -93 callgsubr
            return
          </CharString>
          <CharString index="15">
            59 vstem
            640 -20 rmoveto
            275 184 208 312 hvcurveto
            164 vlineto
            304 -191 202 -286 -144 -197 -30 -45 -151 vhcurveto
            14 -55 132 39 97 24 53 5 rlinecurve
            1 -6 -16 -3 -20 -9 -7 -4 rlinecurve
            -122 -71 -81 -163 -188 vvcurveto
            -164 vlineto
            -312 184 -208 275 vhcurveto
            57 vmoveto
            -240 -160 185 278 hvcurveto
            164 vlineto
            269 9 152 179 219 hhcurveto
            252 168 -179 -269 hvcurveto
            -164 vlineto
            -278 -160 -185 -240 vhcurveto
            return
          </CharString>
          <CharString index="16">
            49 -476 vlineto
            251 248 rlineto
            91 94 88 95 98 vvcurveto
            136 -100 80 -149 -168 -102 -108 -130 -33 callgsubr
            109 74 80 142 129 66 -66 -102 -66 -44 -70 -109 -108 vhcurveto
            -290 -295 rlineto
            -44 vlineto
            endchar
          </CharString>
          <CharString index="17">
            rmoveto
            -189 -266 rlineto
            60 -13 callsubr
            266 rlineto
            return
          </CharString>
          <CharString index="18">
            vlineto
            -103 -29 -67 -60 -78 vhcurveto
            37 -32 rlineto
            63 67 43 92 123 vvcurveto
            return
          </CharString>
          <CharString index="19">
            rmoveto
            284 -2 175 163 294 vvcurveto
            716 -748 -55 689 -685 vlineto
            -234 -146 -133 -239 -7 vhcurveto
            -94 -2 -98 16 -119 37 -13 -51 rcurveline
            -38 117 97 -19 95 hhcurveto
            return
          </CharString>
          <CharString index="20">
            rmoveto
            525 622 54 -622 477 709 55 -763 -47 callgsubr
            764 54 vlineto
            endchar
          </CharString>
          <CharString index="21">
            118 25 -125 144 hhcurveto
            98 78 75 111 hvcurveto
            return
          </CharString>
          <CharString index="22">
            59 vstem
            178 hmoveto
            59 hlineto
            106 818 rlineto
            176 23 116 118 151 hhcurveto
            240 127 -128 -260 hvcurveto
            -669 -387 -55 446 724 vlineto
            293 -153 153 -271 -139 -194 -34 -51 -152 vhcurveto
            20 -53 135 42 85 22 77 12 rlinecurve
            1 -6 -11 -4 -13 -4 -10 -6 rlinecurve
            -77 -45 -61 -106 -15 -115 rrcurveto
            return
          </CharString>
          <CharString index="23">
            54 585 vlineto
            -109 68 125 -80 176 hhcurveto
            256 150 221 330 hvcurveto
            21 32 callgsubr
            -151 209 -257 vhcurveto
            353 5 callgsubr
            -114 -209 -236 -198 -121 101 134 -51 vhcurveto
            506 vlineto
            127 42 96 146 230 hhcurveto
            238 114 -16 callgsubr
          </CharString>
          <CharString index="24">
            54 693 vlineto
            141 32 113 215 236 hhcurveto
            172 121 -74 -275 hvcurveto
            -700 54 700 vlineto
            287 -125 115 -219 vhcurveto
            endchar
          </CharString>
          <CharString index="25">
            rmoveto
            648 vlineto
            307 -142 141 -310 vhcurveto
            -245 -55 248 hlineto
            279 111 -114 -284 hvcurveto
            -649 -701 -55 905 50 vlineto
            return
          </CharString>
          <CharString index="26">
            hlineto
            279 111 -114 -284 hvcurveto
            -704 59 709 vlineto
            307 -142 141 -310 vhcurveto
            return
          </CharString>
          <CharString index="27">
            rmoveto
            -66 hlineto
            -189 -266 rlineto
            60 hlineto
            return
          </CharString>
          <CharString index="28">
            609 -20 rmoveto
            251 167 172 258 hvcurveto
            458 vlineto
            204 -76 93 -167 -81 -62 -18 -38 -78 vhcurveto
            22 -50 rlineto
            34 74 56 16 72 hhcurveto
            124 57 -77 -168 hvcurveto
            -444 vlineto
            -230 -144 -154 -215 -216 -144 154 230 vhcurveto
            return
          </CharString>
          <CharString index="29">
            5 callsubr
            435 54 902 65 0 -20 return
          </CharString>
          <CharString index="30">
            -267 -121 215 271 hvcurveto
            42 vlineto
            269 121 217 265 178 161 -108 -215 10 -33 callgsubr
            return
          </CharString>
          <CharString index="31">
            48 342 49 323 49 hstemhm
            80 54 -29 53 412 53 -30 54 hintmask 11110010
            472 return
          </CharString>
          <CharString index="32">
            1472 36 callsubr
            hintmask 10101100
            -112 -36 124 -139 hhcurveto
            -99 -77 -69 -110 hvcurveto
            hintmask 01001100
            55 hlineto
            hintmask 10101100
            6 callsubr
            hintmask 10011100
            98 78 75 111 hvcurveto
            endchar
          </CharString>
          <CharString index="33">
            -243 -159 187 274 hvcurveto
            169 vlineto
            276 160 183 243 235 132 -112 -207 26 -33 callgsubr
            246 -26 -168 128 -253 hhcurveto
            -278 -179 -209 -306 hvcurveto
            -168 vlineto
            return
          </CharString>
          <CharString index="34">
            111 334 111 return
          </CharString>
          <CharString index="35">
            -89 callsubr
            endchar
          </CharString>
          <CharString index="36">
            100 -16 54 1088 55 hstem
            114 54 840 53 vstem
            return
          </CharString>
          <CharString index="37">
            1456 return
          </CharString>
          <CharString index="38">
            544 54 417 54 hstem
            87 54 757 54 vstem
            return
          </CharString>
          <CharString index="39">
            48 215 49 446 50 hstem
            78 56 432 54 vstem
            347 return
          </CharString>
          <CharString index="40">
            289 -20 54 1422 -20 22 callgsubr
            887 54 vstem
            return
          </CharString>
          <CharString index="41">
            154 vlineto
            169 88 98 142 return
          </CharString>
          <CharString index="42">
            rmoveto
            -70 hlineto
            -295 -370 rlineto
            -19 vlineto
            295 -370 rlineto
            70 hlineto
            -294 380 rlineto
            return
          </CharString>
          <CharString index="43">
            59 -49 callsubr
            -228 -55 169 hlineto
            return
          </CharString>
          <CharString index="44">
            21 -21 -62 callgsubr
            -20 return
          </CharString>
          <CharString index="45">
            403 hlineto
            344 257 260 379 hvcurveto
            178 vlineto
            379 -257 260 -344 vhcurveto
            547 -817 rmoveto
            -342 -234 -243 -313 vhcurveto
            -349 return
          </CharString>
          <CharString index="46">
            48 340 49 325 49 hstemhm
            80 54 -37 53 414 54 -35 54 hintmask 11110010
            464 return
          </CharString>
          <CharString index="47">
            rmoveto
            -4 callsubr
            -59 -184 vlineto
            -103 -24 -67 -60 -78 vhcurveto
            return
          </CharString>
          <CharString index="48">
            -104 54 106 vlineto
            103 29 67 60 78 vhcurveto
            -37 32 rlineto
            -63 -67 -43 -92 -123 vvcurveto
            return
          </CharString>
          <CharString index="49">
            95 -16 53 1128 -20 hstem
            157 53 751 54 vstem
            return
          </CharString>
          <CharString index="50">
            -74 0 54 525 54 477 55 -9 callsubr
            return
          </CharString>
          <CharString index="51">
            1216 rmoveto
            182 104 105 166 117 62 -19 -36 80 vhcurveto
            34 callgsubr
            43 -91 -94 14 -83 hhcurveto
            -200 -123 -121 -220 hvcurveto
            -134 return
          </CharString>
          <CharString index="52">
            rmoveto
            -26 callgsubr
            31 25 24 31 vhcurveto
            endchar
          </CharString>
          <CharString index="53">
            -1456 return
          </CharString>
          <CharString index="54">
            791 -9 vlineto
            -293 -97 rlineto
            -53 vlineto
            248 81 rlineto
            -722 vlineto
            endchar
          </CharString>
          <CharString index="55">
            51 -50 callgsubr
            hstem
            90 -10 callsubr
            return
          </CharString>
          <CharString index="56">
            111 443 55 return
          </CharString>
          <CharString index="57">
            21 -21 548 2 callsubr
            return
          </CharString>
          <CharString index="58">
            1157 return
          </CharString>
          <CharString index="59">
            59 vstem
            919 hmoveto
            59 709 hlineto
            307 -142 141 -310 vhcurveto
            -356 -55 359 hlineto
            279 111 -114 -284 hvcurveto
            return
          </CharString>
          <CharString index="60">
            31 25 24 31 -26 callgsubr
            hvcurveto
            return
          </CharString>
          <CharString index="61">
            rmoveto
            -65 hlineto
            -413 -655 -18 -33 -17 32 -412 656 rlineto
            -65 hlineto
            467 -726 rlineto
            -439 55 438 vlineto
            endchar
          </CharString>
          <CharString index="62">
            -62 callgsubr
            -54 -47 callgsubr
            vlineto
            endchar
          </CharString>
          <CharString index="63">
            -3 callgsubr
            54 return
          </CharString>
          <CharString index="64">
            256 178 123 82 111 67 vhcurveto
            -157 vlineto
            -243 -121 -155 -235 -120 -82 21 42 -94 vhcurveto
            return
          </CharString>
          <CharString index="65">
            54 vstem
            220 1433 rmoveto
            103 -54 -105 -89 callsubr
            return
          </CharString>
          <CharString index="66">
            45 -50 callgsubr
            -25 callgsubr
            720 55 vstem
            591 33 callsubr
            -175 -122 -85 -128 -70 hvcurveto
            return
          </CharString>
          <CharString index="67">
            hhcurveto
            255 154 174 277 hvcurveto
            1067 vlineto
            -424 return
          </CharString>
          <CharString index="68">
            -70 callsubr
            -20 return
          </CharString>
          <CharString index="69">
            56 hintmask 10111000
            591 33 callsubr
            -176 -122 -87 -129 -69 hvcurveto
            650 -54 vlineto
            hintmask 01111000
            -1536 return
          </CharString>
          <CharString index="70">
            -114 -207 hvcurveto
            return
          </CharString>
          <CharString index="71">
            -341 hvcurveto
            -21 vlineto
            return
          </CharString>
          <CharString index="72">
            111 hstem
            return
          </CharString>
          <CharString index="73">
            1102 55 return
          </CharString>
          <CharString index="74">
            vstem
            367 hmoveto
            62 hlineto
            -184 1102 rlineto
            317 hlineto
            1 55 rlineto
            -479 -51 hlineto
            98 -10 rlineto
            return
          </CharString>
          <CharString index="75">
            49 702 49 hstem
            86 54 411 54 vstem
            651 return
          </CharString>
          <CharString index="76">
            -70 callsubr
            rmoveto
            return
          </CharString>
          <CharString index="77">
            rmoveto
            59 383 hlineto
            116 8 66 22 68 vhcurveto
            -56 hlineto
            -25 -75 -8 -55 -110 vvcurveto
            endchar
          </CharString>
          <CharString index="78">
            -175 55 1082 vlineto
            endchar
          </CharString>
          <CharString index="79">
            170 54 return
          </CharString>
          <CharString index="80">
            hhcurveto
            -257 -151 -219 -36 callsubr
            return
          </CharString>
          <CharString index="81">
            -20 54 -13 -21 return
          </CharString>
          <CharString index="82">
            304 359 358 296 -304 -388 -388 -296 -307 -358 hvcurveto
            return
          </CharString>
          <CharString index="83">
            43 rmoveto
            -5 -37 -29 -4 -41 hhcurveto
            -87 -76 35 190 hvcurveto
            768 246 55 -246 return
          </CharString>
          <CharString index="84">
            -51 -121 -101 -198 hhcurveto
            endchar
          </CharString>
          <CharString index="85">
            639 54 hstem
            61 470 vstem
            531 639 rmoveto
            54 -470 15 callgsubr
          </CharString>
          <CharString index="86">
            388 -20 56 512 111 498 -20 return
          </CharString>
          <CharString index="87">
            -1076 1309 -35 callsubr
            return
          </CharString>
          <CharString index="88">
            hstemhm
            92 54 -25 54 return
          </CharString>
          <CharString index="89">
            -62 callgsubr
            rmoveto
            return
          </CharString>
          <CharString index="90">
            59 vstem
            60 -49 callgsubr
            -55 612 -1102 59 1102 184 55 vlineto
            return
          </CharString>
          <CharString index="91">
            137 -50 vhcurveto
            496 vlineto
            127 40 95 151 233 hhcurveto
            238 return
          </CharString>
          <CharString index="92">
            hlineto
            249 103 -130 -159 -155 -103 -124 -249 hvcurveto
            endchar
          </CharString>
          <CharString index="93">
            -21 -49 callsubr
            -20 hstem
            return
          </CharString>
          <CharString index="94">
            hlineto
            195 return
          </CharString>
          <CharString index="95">
            4 callsubr
            896 54 vstem
            603 -31 callsubr
            -403 return
          </CharString>
          <CharString index="96">
            267 -58 63 -111 -98 vvcurveto
            -113 -113 -118 -213 vhcurveto
            return
          </CharString>
          <CharString index="97">
            54 839 54 vstem
            return
          </CharString>
          <CharString index="98">
            -25 callgsubr
            vstem
            return
          </CharString>
          <CharString index="99">
            111 hstemhm
            return
          </CharString>
          <CharString index="100">
            152 -263 56 228 30 callsubr
            return
          </CharString>
          <CharString index="101">
            280 -68 99 -76 -141 vvcurveto
            -145 -153 -99 -217 vhcurveto
            return
          </CharString>
          <CharString index="102">
            -207 -13 -165 -87 -169 hhcurveto
            return
          </CharString>
          <CharString index="103">
            63 67 43 92 123 vvcurveto
            182 return
          </CharString>
          <CharString index="104">
            -49 -118 -105 -202 hhcurveto
            endchar
          </CharString>
          <CharString index="105">
            rmoveto
            711 1138 -45 31 -711 -1138 rlineto
            return
          </CharString>
          <CharString index="106">
            -217 83 -62 138 28 56 2 10 29 vhcurveto
            endchar
          </CharString>
          <CharString index="107">
            293 hlineto
            268 197 -188 -272 hvcurveto
            endchar
          </CharString>
          <CharString index="108">
            -21 54 -12 -21 1048 54 hstemhm
            return
          </CharString>
          <CharString index="109">
            -51 callsubr
            hstem
            return
          </CharString>
          <CharString index="110">
            0 55 1047 55 return
          </CharString>
          <CharString index="111">
            54 -44 callsubr
            return
          </CharString>
          <CharString index="112">
            147 21 -21 return
          </CharString>
          <CharString index="113">
            84 54 41 67 vhcurveto
            118 25 -125 144 hhcurveto
            return
          </CharString>
          <CharString index="114">
            rmoveto
            9 callgsubr
          </CharString>
          <CharString index="115">
            27 callgsubr
            -83 56 hstemhm
            return
          </CharString>
          <CharString index="116">
            -36 callsubr
            -330 return
          </CharString>
          <CharString index="117">
            56 -331 hlineto
            endchar
          </CharString>
          <CharString index="118">
            59 451 59 return
          </CharString>
          <CharString index="119">
            -209 hhcurveto
            return
          </CharString>
          <CharString index="120">
            68 vhcurveto
            -584 54 1498 vlineto
            -424 return
          </CharString>
          <CharString index="121">
            hstem
            32 callsubr
            vstem
            return
          </CharString>
          <CharString index="122">
            54 -13 54 737 54 -13 55 hintmask 11110010
            return
          </CharString>
          <CharString index="123">
            -285 -30 -165 -127 -270 hhcurveto
            return
          </CharString>
          <CharString index="124">
            111 137 54 143 -8 callgsubr
            return
          </CharString>
          <CharString index="125">
            -13 callgsubr
            155 233 264 return
          </CharString>
          <CharString index="126">
            45 -20 54 684 54 650 54 hstemhm
            return
          </CharString>
          <CharString index="127">
            190 11 callsubr
            return
          </CharString>
          <CharString index="128">
            -54 callsubr
            54 return
          </CharString>
          <CharString index="129">
            -42 vlineto
            -317 return
          </CharString>
          <CharString index="130">
            55 70 54 return
          </CharString>
          <CharString index="131">
            445 hmoveto
            return
          </CharString>
          <CharString index="132">
            75 649 53 hstem
            535 55 vstem
            return
          </CharString>
          <CharString index="133">
            -2 55 1049 55 34 callsubr
            59 return
          </CharString>
          <CharString index="134">
            -220 -26 -138 -101 -230 hhcurveto
            return
          </CharString>
          <CharString index="135">
            -258 168 -172 251 vhcurveto
            return
          </CharString>
          <CharString index="136">
            -98 -437 53 hstem
            43 901 vstem
            return
          </CharString>
          <CharString index="137">
            -14 callsubr
            206 59 return
          </CharString>
          <CharString index="138">
            168 54 return
          </CharString>
          <CharString index="139">
            172 54 return
          </CharString>
          <CharString index="140">
            1102 rmoveto
            return
          </CharString>
          <CharString index="141">
            hstem
            254 return
          </CharString>
          <CharString index="142">
            111 -21 111 -21 111 return
          </CharString>
          <CharString index="143">
            rmoveto
            -55 hlineto
            -84 -55 -47 -66 vhcurveto
            return
          </CharString>
          <CharString index="144">
            -330 150 -212 256 return
          </CharString>
          <CharString index="145">
            -259 -380 hvcurveto
            -218 vlineto
            return
          </CharString>
          <CharString index="146">
            -200 -55 200 return
          </CharString>
        <CharString name=".notdef">
          275 -555 186 90 126 90 62 89 127 89 162 89 65 151 60 91 63 89 100 -73 73 89 73 92 97 92 70 89 100 89 181 hstemhm
          251 200 89 89 -89 270 -89 89 89 208 hintmask 111111111011111110110000
          1107 2146 rmoveto
          -856 -2701 856 hlineto
          -208 2520 rmoveto
          -89 -178 -100 178 -89 -448 89 178 100 -175 89 vlineto
          267 -348 rmoveto
          -189 178 -92 -448 281 vlineto
          178 -92 rmoveto
          -89 -97 89 hlineto
          270 -165 rmoveto
          -89 -178 -189 -270 89 178 100 -178 89 vlineto
          hintmask 001011110100000110110000
          448 -162 rmoveto
          -270 -448 91 359 179 vlineto
          89 -330 rmoveto
          -305 -448 305 89 -216 270 127 -89 -62 -92 151 vlineto
          270 -467 rmoveto
          -305 -448 305 vlineto
          hintmask 111100000000000101010000
          359 -89 rmoveto
          -270 -127 270 hlineto
          89 -151 rmoveto
          -90 -86 vlineto
          -189 -126 rlineto
          275 -90 -448 90 hlineto
          189 126 rlineto
          -189 90 hlineto
          endchar
        </CharString>
        <CharString name=".null">
          -1076 endchar
        </CharString>
        <CharString name="A">
          -78 callsubr
          hstemhm
          33 1156 hintmask 11011000
          1130 hmoveto
          -95 callgsubr
          hintmask 11101000
          -71 callgsubr
        </CharString>
        <CharString name="A.smcp">
          -66 callgsubr
          hstem
          28 1001 vstem
          971 hmoveto
          -102 callsubr
        </CharString>
        <CharString name="AE">
          740 0 54 371 53 254 54 616 54 hstem
          1007 46.5 vstem
          1068 54 rmoveto
          -29 678 rlineto
          586 54 -588 hlineto
          -26 616 rlineto
          696 54 -776 hlineto
          -881 -54 callsubr
          rlineto
          65 hlineto
          256 425 rlineto
          627 hlineto
          18 -425 rlineto
          752 54 hlineto
          -1365 424 rmoveto
          554 921 39 -921 rlineto
          endchar
        </CharString>
        <CharString name="AE.smcp">
          477 0 54 292 54 176 54 469 66 -54 54 hstemhm
          752 54 hintmask 11101100
          1485 1111 rmoveto
          54 -752 vlineto
          -713 -47 callgsubr
          rlineto
          66 hlineto
          210 346 rlineto
          456 -346 733 54 -679 522 592 54 -592 481 hlineto
          -478 -711 rmoveto
          hintmask 11110100
          424 699 rlineto
          -699 vlineto
          endchar
        </CharString>
        <CharString name="Aacute">
          -78 callsubr
          hstemhm
          33 1156 hintmask 11011000
          821 1855 -80 callsubr
          504 -1589 rmoveto
          -95 callgsubr
          hintmask 11101000
          -71 callgsubr
        </CharString>
        <CharString name="Aacute.smcp">
          -66 callgsubr
          hstem
          28 1001 vstem
          739 1563 -80 callsubr
          427 -1297 rmoveto
          -102 callsubr
        </CharString>
        <CharString name="Acircumflex">
          -78 callsubr
          hstemhm
          33 1156 hintmask 11011000
          611 1779 -92 callgsubr
          704 -1583 rmoveto
          -95 callgsubr
          hintmask 11101000
          -71 callgsubr
        </CharString>
        <CharString name="Acircumflex.smcp">
          -66 callgsubr
          hstem
          28 1001 vstem
          529 1487 -92 callgsubr
          627 -1291 rmoveto
          -102 callsubr
        </CharString>
        <CharString name="Adieresis">
          -78 callsubr
          249 -8 callsubr
          336 -73 callsubr
          hintmask 11011110
          391 1685 -101 callsubr
          294 -1685 rmoveto
          -95 callgsubr
          hintmask 11101110
          -71 callgsubr
        </CharString>
        <CharString name="Adieresis.smcp">
          -66 callgsubr
          228 111 34 callsubr
          -73 callsubr
          vstem
          309 1393 -101 callsubr
          217 -1393 rmoveto
          -102 callsubr
        </CharString>
        <CharString name="Agrave">
          -78 callsubr
          hstemhm
          33 1156 hintmask 11011000
          666 1589 -97 callgsubr
          523 -1589 rmoveto
          -95 callgsubr
          hintmask 11101000
          -71 callgsubr
        </CharString>
        <CharString name="Agrave.smcp">
          -66 callgsubr
          hstem
          28 1001 vstem
          584 1297 -97 callgsubr
          446 -1297 rmoveto
          -102 callsubr
        </CharString>
        <CharString name="Aring">
          -78 callsubr
          95 54 236 54 hstemhm
          443 54 234 54 hintmask 11011111
          614 1531 -82 callgsubr
          516 -1821 rmoveto
          -95 callgsubr
          hintmask 11101111
          -71 callgsubr
        </CharString>
        <CharString name="Aring.smcp">
          -66 callgsubr
          74 54 236 54 hstem
          361 54 234 54 vstem
          532 1239 -82 callgsubr
          439 -1529 rmoveto
          -102 callsubr
        </CharString>
        <CharString name="Atilde">
          -78 callsubr
          184 23 callsubr
          hstemhm
          301 -17 callgsubr
          hintmask 11011111
          477 1745 rmoveto
          -86 callsubr
          -99 callsubr
          653 -1745 rmoveto
          -95 callgsubr
          hintmask 11101111
          -71 callgsubr
        </CharString>
        <CharString name="Atilde.smcp">
          -66 callgsubr
          163 12 callgsubr
          219 -17 callgsubr
          vstem
          395 1453 rmoveto
          -86 callsubr
          -99 callsubr
          576 -1453 rmoveto
          -102 callsubr
        </CharString>
        <CharString name="B">
          159 0 54 665 54 629 54 hstemhm
          200 54 750 55 12 54 hintmask 11110100
          803 754 rmoveto
          hintmask 11111100
          166 30 90 130 169 vvcurveto
          257 -182 116 -294 vhcurveto
          -383 -54 callsubr
          475 hlineto
          hintmask 11110100
          265 185 142 259 177 -140 152 -182 24 hvcurveto
          -220 648 rmoveto
          hintmask 11111100
          277 144 -106 -209 -213 -137 -101 -264 hvcurveto
          -349 629 hlineto
          hintmask 11110100
          421 -1348 rmoveto
          -421 665 431 hlineto
          258 128 -153 -167 -217 -151 -128 -245 hvcurveto
          endchar
        </CharString>
        <CharString name="B.smcp">
          -12 0 54 517 54 485 55 hstemhm
          -28 callsubr
          635 54 2 54 hintmask 11110100
          705 604 rmoveto
          hintmask 11111000
          134 30 74 100 130 vvcurveto
          207 -156 94 -253 vhcurveto
          -334 -47 callgsubr
          410 hlineto
          hintmask 11110100
          229 160 113 209 138 -113 121 -151 23 hvcurveto
          -201 506 rmoveto
          hintmask 11111000
          233 122 -81 -162 -163 -117 -79 -221 hvcurveto
          -297 485 hlineto
          hintmask 11110100
          356 -1056 rmoveto
          -356 517 365 hlineto
          219 107 -117 -134 -168 -127 -98 -208 hvcurveto
          endchar
        </CharString>
        <CharString name="C">
          251 -20 54 1388 54 hstem
          144 54 vstem
          1190 446 rmoveto
          -54 hlineto
          16 callsubr
          -73 callgsubr
          -380 207 -259 320 292 197 151 315 30 vhcurveto
          endchar
        </CharString>
        <CharString name="C.smcp">
          65 -16 53 1089 55 hstem
          122 54 vstem
          1026 358 rmoveto
          -54 hlineto
          27 callsubr
          -74 callsubr
          -306 179 -208 277 254 168 126 248 26 vhcurveto
          endchar
        </CharString>
        <CharString name="C.ss06">
          260 -21 54 1390 54 hstem
          130 54 vstem
          1236 446 rmoveto
          -54 hlineto
          -271 -40 -155 -142 -270 hhcurveto
          -319 -214 289 377 hvcurveto
          60 vlineto
          375 214 289 319 276 149 -157 -254 40 -33 callgsubr
          298 -40 -187 167 -292 hhcurveto
          -356 -231 -316 -404 hvcurveto
          -58 vlineto
          -404 231 -316 356 292 189 165 302 38 vhcurveto
          endchar
        </CharString>
        <CharString name="Ccedilla">
          251 -445 49 376 54 -53 53 1388 54 hstemhm
          144 54 619 55 hintmask 11011100
          671 34 rmoveto
          -73 callgsubr
          -372 198 -256 309 -11 vhcurveto
          -23 -111 -80 callgsubr
          hvcurveto
          hintmask 10111100
          121 -88 39 -89 9 vhcurveto
          10 67 273 11 183 151 29 303 rlinecurve
          -54 hlineto
          hintmask 11011100
          16 callsubr
          endchar
        </CharString>
        <CharString name="Ccedilla.smcp">
          65 -443 49 378 53 -52 52 1089 55 hstemhm
          122 54 546 55 hintmask 11011100
          578 37 rmoveto
          -74 callsubr
          -298 170 -205 264 -11 vhcurveto
          -23 -113 -80 callgsubr
          hvcurveto
          hintmask 10111100
          121 -88 39 -89 9 vhcurveto
          10 69 236 10 155 126 25 237 rlinecurve
          -54 hlineto
          hintmask 11011100
          27 callsubr
          endchar
        </CharString>
        <CharString name="D">
          264 0 54 1348 -12 callsubr
          -54 callsubr
          -62 callsubr
          1348 0 callgsubr
        </CharString>
        <CharString name="D.smcp">
          76 0 54 1056 -11 callgsubr
          -47 callgsubr
          -61 callgsubr
          1056 0 callsubr
        </CharString>
        <CharString name="D.ss06">
          298 0 54 1348 4 callsubr
          936 54 vstem
          583 -31 callsubr
          -383 -54 callsubr
          383 hlineto
          377 284 284 415 hvcurveto
          58 vlineto
          415 -284 284 -377 vhcurveto
          607 -757 rmoveto
          -378 -261 -267 -346 vhcurveto
          -329 1348 329 hlineto
          346 261 -267 -375 hvcurveto
          endchar
        </CharString>
        <CharString name="E">
          -57 callgsubr
          1086 23 callgsubr
          -86 callgsubr
        </CharString>
        <CharString name="E.smcp">
          -57 callsubr
          224 54 -87 callsubr
        </CharString>
        <CharString name="Eacute">
          -57 callgsubr
          828 1855 -80 callsubr
          453 -187 -86 callgsubr
        </CharString>
        <CharString name="Eacute.smcp">
          -57 callsubr
          741 1563 -80 callsubr
          -322 -1243 -87 callsubr
        </CharString>
        <CharString name="Ecircumflex">
          -57 callgsubr
          618 1779 -92 callgsubr
          653 -181 -86 callgsubr
        </CharString>
        <CharString name="Ecircumflex.smcp">
          -57 callsubr
          531 1487 -92 callgsubr
          -122 -1237 -87 callsubr
        </CharString>
        <CharString name="Edieresis">
          90 0 54 668 54 626 54 229 111 -44 callsubr
          89 -73 callsubr
          vstem
          398 1685 -101 callsubr
          243 -283 -86 callgsubr
        </CharString>
        <CharString name="Edieresis.smcp">
          -74 0 54 525 54 477 55 228 111 -25 callgsubr
          32 -73 callsubr
          vstem
          311 1393 -101 callsubr
          -532 -1339 -87 callsubr
        </CharString>
        <CharString name="Egrave">
          -57 callgsubr
          673 1589 -97 callgsubr
          472 -187 -86 callgsubr
        </CharString>
        <CharString name="Egrave.smcp">
          -57 callsubr
          586 1297 -97 callgsubr
          -303 -1243 -87 callsubr
        </CharString>
        <CharString name="Eth">
          264 0 54 659 54 635 -12 callsubr
          -689 -140 -54 140 -713 -62 callsubr
          659 393 54 -393 635 0 callgsubr
        </CharString>
        <CharString name="Eth.smcp">
          76 0 54 511 54 491 -11 callgsubr
          -546 -193 -54 193 -565 -61 callgsubr
          511 340 54 -340 491 0 callsubr
        </CharString>
        <CharString name="Euro">
          45 -21 54 551 55 191 56 536 54 hstem
          277 54 vstem
          810 1422 rmoveto
          78 77 38 callgsubr
          -69 12 -77 hhcurveto
          -315 -218 -189 -365 hvcurveto
          -36 -205 -56 205 -191 -205 -55 205 -50 vlineto
          -365 220 -190 315 76 76 11 20 68 vhcurveto
          57 vlineto
          -22 -67 -76 -12 -77 hhcurveto
          -292 -189 174 327 hvcurveto
          50 455 55 -455 191 455 56 -455 38 vlineto
          334 187 164 292 vhcurveto
          endchar
        </CharString>
        <CharString name="Euro.smcp">
          -154 -21 54 408 54 156 54 422 54 hstemhm
          224 54 -51 54 hintmask 11111000
          647 1127 rmoveto
          78 67 38 callgsubr
          -59 12 -77 hhcurveto
          -262 -143 -181 -295 -16 hvcurveto
          -186 -54 184 -4 hlineto
          -133 vlineto
          -19 -184 -54 187 vlineto
          -286 20 144 -176 258 hhcurveto
          76 66 11 20 68 hvcurveto
          57 vlineto
          -22 -67 -66 -12 -77 hhcurveto
          hintmask 11110100
          -234 -116 159 249 -18 hvcurveto
          452 54 hlineto
          hintmask 11111000
          -455 19 hlineto
          135 vlineto
          2 455 54 -454 vlineto
          264 14 114 158 240 hhcurveto
          endchar
        </CharString>
        <CharString name="F">
          96 21 -21 716 56 630 4 callsubr
          vstem
          1102 23 callgsubr
          rmoveto
          54 -902 21 callsubr
          716 746 56 -746 630 vlineto
          endchar
        </CharString>
        <CharString name="F.smcp">
          -71 21 -21 565 55 490 55 -9 callsubr
          945 1110 rmoveto
          55 -775 -47 callgsubr
          54 565 633 55 -633 490 vlineto
          endchar
        </CharString>
        <CharString name="G">
          330 -20 54 571 55 762 54 hstem
          31 callsubr
          950 54 vstem
          1226 -2 callgsubr
          -45 -160 -88 -238 hhcurveto
          -308 -199 243 343 hvcurveto
          240 vlineto
          328 193 234 297 303 125 -170 -190 30 -33 callgsubr
          233 -27 -170 181 -315 hhcurveto
          -321 -223 -251 -367 hvcurveto
          -238 vlineto
          -380 229 -260 332 284 166 110 66 47 vhcurveto
          endchar
        </CharString>
        <CharString name="G.smcp">
          132 -16 53 443 54 592 55 hstem
          142 53 806 54 vstem
          1055 129 rmoveto
          405 -431 -54 377 -329 vlineto
          -45 -39 -132 -69 -203 hhcurveto
          -262 -170 190 275 hvcurveto
          178 vlineto
          262 163 184 253 257 106 -132 -148 25 -33 callgsubr
          189 -24 -146 146 -272 hhcurveto
          -278 -191 -202 -301 hvcurveto
          -176 vlineto
          -311 198 -207 287 247 140 90 55 41 vhcurveto
          endchar
        </CharString>
        <CharString name="G.ss06">
          352 -21 54 572 55 762 54 hstem
          130 54 1010 54 vstem
          1248 -2 callgsubr
          -43 -153 -89 -227 hhcurveto
          -356 -231 308 379 hvcurveto
          40 vlineto
          364 209 298 321 316 131 -170 -190 31 -33 callgsubr
          233 -28 -177 181 -327 hhcurveto
          -345 -239 -315 -403 hvcurveto
          -38 vlineto
          -416 261 -325 380 273 159 111 66 45 vhcurveto
          endchar
        </CharString>
        <CharString name="H">
          362 21 -21 722 54 680 -20 -44 callsubr
          930 54 vstem
          1184 -31 callsubr
          -680 -930 680 -54 21 callsubr
          722 930 -722 54 -70 callsubr
          vlineto
          endchar
        </CharString>
        <CharString name="H.smcp">
          162 21 -21 550 54 561 -20 -25 callgsubr
          789 54 vstem
          1013 -18 callsubr
          -561 -789 561 -54 -47 callgsubr
          54 550 789 -550 54 -62 callgsubr
          vlineto
          endchar
        </CharString>
        <CharString name="I">
          -542 -54 callgsubr
          240 54 vstem
          294 hmoveto
          -44 callgsubr
        </CharString>
        <CharString name="I.smcp">
          -51 callgsubr
          257 hmoveto
          -45 callsubr
        </CharString>
        <CharString name="Iacute">
          -542 -54 callgsubr
          240 54 vstem
          411 1855 -90 callsubr
          -183 -1855 rmoveto
          -44 callgsubr
        </CharString>
        <CharString name="Iacute.smcp">
          -51 callgsubr
          373 1563 -90 callsubr
          -182 -1563 rmoveto
          -45 callsubr
        </CharString>
        <CharString name="Icircumflex">
          -542 -54 callgsubr
          240 54 vstem
          522 1593 -99 callgsubr
          -228 -1583 rmoveto
          -44 callgsubr
        </CharString>
        <CharString name="Icircumflex.smcp">
          -51 callgsubr
          484 1301 -99 callgsubr
          -227 -1291 rmoveto
          -45 callsubr
        </CharString>
        <CharString name="Idieresis">
          -542 -56 callgsubr
          249 -35 callsubr
          -8 17 callsubr
          47 1796 rmoveto
          -107 callsubr
          24 callsubr
          -107 callsubr
          -198 -1796 rmoveto
          -44 callgsubr
        </CharString>
        <CharString name="Idieresis.smcp">
          -616 -63 callsubr
          248 -35 callsubr
          -46 111 138 54 142 -8 callgsubr
          9 1504 rmoveto
          -107 callsubr
          24 callsubr
          -107 callsubr
          -197 -1504 rmoveto
          -45 callsubr
        </CharString>
        <CharString name="Igrave">
          -542 -54 callgsubr
          240 54 vstem
          322 1589 -97 callgsubr
          31 -1589 rmoveto
          -44 callgsubr
        </CharString>
        <CharString name="Igrave.smcp">
          -51 callgsubr
          284 1297 -97 callgsubr
          32 -1297 rmoveto
          -45 callsubr
        </CharString>
        <CharString name="J">
          49 -20 54 1422 -20 hstem
          90 54 732 54 vstem
          876 -31 callsubr
          -1014 vlineto
          -269 -166 -139 -200 -243 -123 131 236 vhcurveto
          -54 hlineto
          -285 163 -136 257 237 183 163 299 vhcurveto
          1014 vlineto
          endchar
        </CharString>
        <CharString name="J.smcp">
          -109 -16 53 1128 -20 hstem
          75 54 618 55 vstem
          747 -18 callsubr
          -830 vlineto
          -185 -130 -113 -169 -205 -114 101 183 vhcurveto
          -54 hlineto
          -228 151 -109 222 205 149 133 218 vhcurveto
          830 vlineto
          endchar
        </CharString>
        <CharString name="K">
          224 -54 callgsubr
          200 54 vstem
          1156 hmoveto
          70 hlineto
          -698 804 648 652 rlineto
          -78 hlineto
          -606 -609 -238 -232 rlineto
          841 -54 21 callsubr
          551 vlineto
          233 215 rlineto
          endchar
        </CharString>
        <CharString name="K.alt">
          224 21 -21 711 53 692 21 callgsubr
          1156 hmoveto
          71 hlineto
          -690 730 644 726 rlineto
          -71 hlineto
          -618 -692 rlineto
          -238 692 -54 21 callsubr
          711 223 hlineto
          endchar
        </CharString>
        <CharString name="K.alt2">
          224 21 -21 711 36 709 21 callgsubr
          1066 hmoveto
          81 hlineto
          -819 731 773 725 rlineto
          -81 hlineto
          -754 -709 rlineto
          -12 709 -54 21 callsubr
          711 13 hlineto
          endchar
        </CharString>
        <CharString name="K.smcp">
          40 -46 callgsubr
          170 54 vstem
          988 hmoveto
          72 hlineto
          -598 646 548 519 rlineto
          -76 hlineto
          -510 -480 -200 -185 rlineto
          665 -54 -47 callgsubr
          54 434 vlineto
          195 173 rlineto
          endchar
        </CharString>
        <CharString name="L">
          -19 0 54 23 callgsubr
          -20 -3 callgsubr
          55 vstem
          255 54 rmoveto
          23 callgsubr
          -55 -54 callsubr
          802 54 vlineto
          endchar
        </CharString>
        <CharString name="L.smcp">
          -164 0 54 1111 -20 -9 callsubr
          224 54 rmoveto
          1111 -54 -47 callgsubr
          694 54 vlineto
          endchar
        </CharString>
        <CharString name="M">
          680 0 79 -58 -21 1369 87 -80 80 0 -20 hstemhm
          200 54 1248 54 hintmask 01001110
          1556 -31 callsubr
          -79 hlineto
          hintmask 10001110
          -601 -1377 -599 1377 rlineto
          -77 21 callsubr
          hlineto
          hintmask 01100110
          1369 vlineto
          601 -1369 rlineto
          43 hlineto
          hintmask 01010110
          604 1376 rlineto
          -1376 54 vlineto
          endchar
        </CharString>
        <CharString name="M.smcp">
          436 0 82 -61 -21 1090 75 0 -20 hstemhm
          -28 callsubr
          1063 54 hintmask 01011100
          1341 -18 callsubr
          -77 hlineto
          hintmask 10011100
          -510 -1083 -509 1083 rlineto
          -75 -47 callgsubr
          54 549 hlineto
          hintmask 01101100
          -1 537 510 -1086 rlineto
          43 hlineto
          512 1090 -1 -541 rlineto
          -549 54 vlineto
          endchar
        </CharString>
        <CharString name="N">
          373 -54 callgsubr
          200 55 940 54 vstem
          1249 hmoveto
          -45 callgsubr
        </CharString>
        <CharString name="N.smcp">
          170 -46 callgsubr
          170 54 798 54 vstem
          1076 hmoveto
          -38 callgsubr
        </CharString>
        <CharString name="Ntilde">
          373 -56 callgsubr
          184 12 callgsubr
          200 55 160 -17 callgsubr
          141 54 vstem
          1054 1806 rmoveto
          -99 callsubr
          -86 callsubr
          195 -1806 rmoveto
          -45 callgsubr
        </CharString>
        <CharString name="Ntilde.smcp">
          170 -63 callsubr
          183 55 70 54 -25 callgsubr
          89 -17 callgsubr
          70 54 vstem
          952 1514 rmoveto
          -99 callsubr
          -86 callsubr
          124 -1514 rmoveto
          -38 callgsubr
        </CharString>
        <CharString name="O">
          -81 callgsubr
          1231 619 -106 callgsubr
        </CharString>
        <CharString name="O.smcp">
          -71 callsubr
          1061 502 -106 callsubr
        </CharString>
        <CharString name="O.ss06">
          -27 callgsubr
          58 vlineto
          416 -245 304 -335 -334 -244 -304 -416 vhcurveto
          -58 28 callgsubr
          335 243 304 416 vhcurveto
          -54 60 rmoveto
          -60 vlineto
          -378 -210 -288 -314 -312 -213 288 378 vhcurveto
          60 vlineto
          376 211 288 312 314 212 -288 -376 vhcurveto
          endchar
        </CharString>
        <CharString name="OE">
          797 -21 54 -33 54 668 54 626 54 -34 54 hstemhm
          112 54 749 54 hintmask 01110110
          1801 23 callgsubr
          rmoveto
          54 -840 vlineto
          hintmask 10101110
          11 -101 -114 9 -117 hhcurveto
          -307 -210 -243 -353 hvcurveto
          -304 vlineto
          -353 212 -244 307 vhcurveto
          hintmask 01110110
          117 112 11 10 101 hvcurveto
          840 54 -832 668 730 54 -730 626 hlineto
          hintmask 10101110
          -803 -826 rmoveto
          306 vlineto
          323 181 217 282 102 97 -2 -11 87 vhcurveto
          -1362 vlineto
          -10 -85 -105 -4 -94 hhcurveto
          -282 -183 227 316 hvcurveto
          endchar
        </CharString>
        <CharString name="Oacute">
          -81 callgsubr
          819 1876 -90 callsubr
          346 -1257 -106 callgsubr
        </CharString>
        <CharString name="Oacute.smcp">
          -71 callsubr
          726 1563 -90 callsubr
          269 -1061 -106 callsubr
        </CharString>
        <CharString name="Ocircumflex">
          -81 callgsubr
          930 1614 -99 callgsubr
          301 -985 -106 callgsubr
        </CharString>
        <CharString name="Ocircumflex.smcp">
          -71 callsubr
          837 1301 -99 callgsubr
          224 -789 -106 callsubr
        </CharString>
        <CharString name="Odieresis">
          288 -20 54 1388 54 230 111 11 callgsubr
          212 -73 callsubr
          221 54 vstem
          455 1817 rmoveto
          -107 callsubr
          24 callsubr
          -107 callsubr
          331 -1198 -106 callgsubr
        </CharString>
        <CharString name="Odieresis.smcp">
          100 -16 54 1088 55 212 -35 callsubr
          114 54 139 -73 callsubr
          145 53 vstem
          362 1504 rmoveto
          -107 callsubr
          24 callsubr
          -107 callsubr
          254 -1002 -106 callsubr
        </CharString>
        <CharString name="Ograve">
          -81 callgsubr
          730 1610 -97 callgsubr
          560 -991 -106 callgsubr
        </CharString>
        <CharString name="Ograve.smcp">
          -71 callsubr
          637 1297 -97 callgsubr
          483 -795 -106 callsubr
        </CharString>
        <CharString name="Oslash">
          -81 callgsubr
          1240 1495 rmoveto
          -66 hlineto
          -111 -175 rlineto
          99 -95 -130 57 -157 hhcurveto
          -334 -214 38 callsubr
          -206 63 -170 111 -113 vhcurveto
          -130 -205 rlineto
          66 hlineto
          106 167 rlineto
          -72 89 113 -40 132 hhcurveto
          335 213 259 380 hvcurveto
          218 vlineto
          177 -47 151 -83 110 vhcurveto
          -913 -656 rmoveto
          220 32 callgsubr
          181 242 312 149 119 -55 -93 85 vhcurveto
          -697 -1097 rlineto
          -97 104 -52 154 184 vvcurveto
          989 220 rmoveto
          -220 vlineto
          -343 -180 -242 -314 -123 -102 37 67 -80 vhcurveto
          692 1089 rlineto
          70 -100 37 -134 -154 vvcurveto
          endchar
        </CharString>
        <CharString name="Oslash.smcp">
          -71 callsubr
          936 1033 rmoveto
          121 182 rlineto
          -56 hlineto
          -98 -148 rlineto
          73 -81 -107 41 -128 hhcurveto
          -289 -184 -208 -311 hvcurveto
          -160 vlineto
          -167 54 -138 95 -91 vhcurveto
          -121 -181 rlineto
          56 hlineto
          100 151 rlineto
          -59 77 99 -33 114 hhcurveto
          289 184 207 311 hvcurveto
          160 vlineto
          153 -45 128 -80 90 vhcurveto
          -768 -531 rmoveto
          162 vlineto
          274 154 188 265 119 96 -37 -66 71 vhcurveto
          -580 -871 rlineto
          -81 82 -44 121 147 vvcurveto
          840 hmoveto
          -276 -153 -188 -267 -105 -87 30 52 -68 vhcurveto
          578 868 rlineto
          66 -81 36 -111 -132 vvcurveto
          endchar
        </CharString>
        <CharString name="Otilde">
          288 -20 54 1388 54 165 55 70 54 11 callgsubr
          177 -17 callgsubr
          173 54 vstem
          1004 1827 rmoveto
          -99 callsubr
          -86 callsubr
          227 -1208 -106 callgsubr
        </CharString>
        <CharString name="Otilde.smcp">
          100 -16 54 1088 55 147 12 callgsubr
          114 54 104 -17 callgsubr
          97 53 vstem
          911 1514 rmoveto
          -99 callsubr
          -86 callsubr
          150 -1012 -106 callsubr
        </CharString>
        <CharString name="P">
          154 21 -21 615 54 733 4 callsubr
          817 54 vstem
          655 -31 callsubr
          -455 21 callsubr
          615 401 hlineto
          311 159 159 257 256 -160 169 -310 hvcurveto
          -787 vmoveto
          -401 733 401 hlineto
          294 122 -167 -206 -198 -122 -162 -294 hvcurveto
          endchar
        </CharString>
        <CharString name="P.smcp">
          -15 21 -21 487 55 568 55 -25 callgsubr
          694 55 vstem
          566 -18 callsubr
          -396 -47 callgsubr
          54 487 342 -23 callgsubr
          -342 568 342 -15 callsubr
        </CharString>
        <CharString name="Q">
          -81 callgsubr
          1231 619 rmoveto
          218 vlineto
          380 -215 259 -335 -334 -214 -259 -380 vhcurveto
          -19 callgsubr
          216 -259 334 67 62 10 20 57 vhcurveto
          283 -273 39 35 -267 261 rlineto
          193 95 114 213 278 vvcurveto
          -548 -585 rmoveto
          -312 -183 242 343 hvcurveto
          220 32 callgsubr
          181 242 312 314 182 -242 -341 vhcurveto
          -220 vlineto
          -343 -180 -242 -314 vhcurveto
          endchar
        </CharString>
        <CharString name="Q.smcp">
          100 -16 54 1088 55 hstem
          113 55 839 54 vstem
          1061 502 rmoveto
          160 vlineto
          311 -186 208 -289 -288 -185 -208 -311 vhcurveto
          -160 vlineto
          -311 187 -207 287 57 54 8 16 48 vhcurveto
          245 -216 38 37 -225 201 rlineto
          162 78 95 170 224 vvcurveto
          -474 -464 rmoveto
          -264 -155 188 276 hvcurveto
          162 vlineto
          274 154 188 264 266 155 -188 -274 vhcurveto
          -162 vlineto
          -276 -153 -188 -267 vhcurveto
          endchar
        </CharString>
        <CharString name="Q.ss06">
          -27 callgsubr
          48 vlineto
          416 -245 314 -335 -334 -244 -314 -416 vhcurveto
          -48 28 callgsubr
          74 70 15 28 64 vhcurveto
          313 -265 39 35 -299 257 rlineto
          193 113 124 240 297 vvcurveto
          -578 -666 rmoveto
          -312 -213 287 379 hvcurveto
          50 vlineto
          377 211 297 312 314 212 -297 -377 vhcurveto
          -50 vlineto
          -379 -210 -287 -314 vhcurveto
          endchar
        </CharString>
        <CharString name="R">
          264 21 -21 623 54 725 54 hstem
          195 54 834 54 vstem
          809 637 rmoveto
          183 34 145 158 207 vvcurveto
          271 -200 149 -278 vhcurveto
          -464 21 callsubr
          623 505 hlineto
          387 -623 rlineto
          57 14 hlineto
          -949 663 rmoveto
          725 410 vlineto
          258 166 -137 -229 -181 -126 -178 -249 hvcurveto
          endchar
        </CharString>
        <CharString name="R.alt">
          264 -1 25 659 54 664 54 hstemhm
          195 54 828 54 -48 54 hintmask 11111000
          1131 234 rmoveto
          137 vlineto
          171 -67 132 -220 37 vhcurveto
          hintmask 11110100
          190 42 103 157 155 vvcurveto
          258 -173 132 -305 vhcurveto
          -464 21 callsubr
          684 443 hlineto
          hintmask 11111000
          254 131 -118 -196 hvcurveto
          -133 vlineto
          -100 25 -82 47 -55 vhcurveto
          53 25 hlineto
          -53 49 -18 78 83 vvcurveto
          hintmask 11110100
          -482 503 rmoveto
          -400 664 410 hlineto
          285 139 -120 -216 -166 -113 -162 -321 hvcurveto
          endchar
        </CharString>
        <CharString name="R.smcp">
          71 21 -21 487 54 569 55 hstem
          166 54 704 55 vstem
          701 500 rmoveto
          157 30 121 126 162 vvcurveto
          219 -171 128 -242 vhcurveto
          -400 -47 callgsubr
          54 487 427 hlineto
          327 -487 rlineto
          57 10 hlineto
          -811 531 rmoveto
          569 346 vlineto
          220 138 -115 -177 -141 -107 -136 -212 hvcurveto
          endchar
        </CharString>
        <CharString name="S">
          135 -20 54 1388 54 hstemhm
          96 54 -7 54 860 54 -39 55 hintmask 11010100
          623 718 rmoveto
          330 -90 119 -95 -184 vvcurveto
          -187 -183 -128 -256 vhcurveto
          hintmask 11100100
          -210 -273 86 291 hvcurveto
          -54 hlineto
          -326 288 -105 249 272 222 133 238 245 -202 99 -287 75 vhcurveto
          hintmask 11011000
          -348 90 -93 107 155 vvcurveto
          158 154 142 275 259 172 -161 -215 -33 callgsubr
          257 -202 173 -283 -275 -208 -134 -222 vhcurveto
          hintmask 11010100
          -234 183 -87 297 -81 vhcurveto
          endchar
        </CharString>
        <CharString name="S.smcp">
          -35 -16 53 1089 55 hstemhm
          82 53 -13 53 727 54 -42 55 hintmask 11010100
          535 566 rmoveto
          -6 callsubr
          hintmask 11100100
          17 callgsubr
          -257 247 -88 215 235 190 108 190 30 callgsubr
          hintmask 11011000
          -7 callgsubr
          36 callgsubr
          -33 callgsubr
          203 -173 143 -246 -237 -178 -111 -179 vhcurveto
          hintmask 11010100
          26 callgsubr
          endchar
        </CharString>
        <CharString name="T">
          148 21 -21 23 callgsubr
          54 hstem
          585 54 vstem
          1169 -31 callsubr
          -1114 -54 530 -1402 54 23 callgsubr
          530 hlineto
          endchar
        </CharString>
        <CharString name="T.smcp">
          -24 21 -21 1110 55 hstem
          499 54 vstem
          1005 -18 callsubr
          -959 -55 453 -1110 54 1110 452 hlineto
          endchar
        </CharString>
        <CharString name="Thorn">
          143 21 -21 334 54 701 54 313 -20 -44 callsubr
          767 54 vstem
          625 1143 rmoveto
          -371 313 -54 21 callsubr
          334 371 hlineto
          291 159 171 233 232 -159 173 -291 hvcurveto
          -755 vmoveto
          -371 701 371 hlineto
          281 115 -180 -173 -165 -115 -183 -281 hvcurveto
          endchar
        </CharString>
        <CharString name="Thorn.smcp">
          -115 21 -21 260 55 568 55 227 -20 -25 callgsubr
          594 55 vstem
          466 938 rmoveto
          -242 227 -54 -47 callgsubr
          54 260 242 -23 callgsubr
          -242 568 242 -15 callsubr
        </CharString>
        <CharString name="U">
          -67 callsubr
          1180 1456 -98 callgsubr
        </CharString>
        <CharString name="U.smcp">
          -58 callsubr
          1015 1165 -98 callsubr
        </CharString>
        <CharString name="Uacute">
          -67 callsubr
          840 1855 -90 callsubr
          274 -399 -98 callgsubr
        </CharString>
        <CharString name="Uacute.smcp">
          -58 callsubr
          741 1563 -90 callsubr
          208 -398 -98 callsubr
        </CharString>
        <CharString name="Ucircumflex">
          -67 callsubr
          951 1593 -99 callgsubr
          229 -127 -98 callgsubr
        </CharString>
        <CharString name="Ucircumflex.smcp">
          -58 callsubr
          852 1301 -99 callgsubr
          163 -126 -98 callsubr
        </CharString>
        <CharString name="Udieresis">
          289 -20 54 1422 -20 249 111 22 callgsubr
          182 -73 callsubr
          149 54 vstem
          476 1796 rmoveto
          -107 callsubr
          24 callsubr
          -107 callsubr
          259 -340 -98 callgsubr
        </CharString>
        <CharString name="Udieresis.smcp">
          95 -16 53 1128 -20 248 -35 callsubr
          157 53 112 -73 callsubr
          83 54 vstem
          377 1504 rmoveto
          -107 callsubr
          24 callsubr
          -107 callsubr
          193 -339 -98 callsubr
        </CharString>
        <CharString name="Ugrave">
          -67 callsubr
          751 1589 -97 callgsubr
          488 -133 -98 callgsubr
        </CharString>
        <CharString name="Ugrave.smcp">
          -58 callsubr
          652 1297 -97 callgsubr
          422 -132 -98 callsubr
        </CharString>
        <CharString name="V">
          147 0 54 23 callgsubr
          -20 hstem
          35 1154 vstem
          1130 -31 callsubr
          -489 -1314 -29 -88 -29 88 -489 1314 rlineto
          -59 hlineto
          544 -54 callsubr
          rlineto
          66 hlineto
          544 -70 callsubr
          rlineto
          endchar
        </CharString>
        <CharString name="V.smcp">
          -20 0 57 -36 -21 -62 callgsubr
          -20 hstemhm
          29 998 hintmask 01110000
          968 -18 callsubr
          hintmask 10110000
          -414 -1028 -26 -80 -25 80 -414 1028 rlineto
          -60 hlineto
          468 -47 callgsubr
          rlineto
          62 hlineto
          468 -62 callgsubr
          rlineto
          endchar
        </CharString>
        <CharString name="W">
          779 0 90 -69 -21 1368 88 0 -20 hstemhm
          61 1732 hintmask 01011000
          1734 -31 callsubr
          -300 -1126 rlineto
          hintmask 10011000
          -68 -240 -65 240 -342 1126 rlineto
          -60 hlineto
          -344 -1126 -66 -239 -66 239 -302 1126 rlineto
          -60 hlineto
          393 -54 callsubr
          rlineto
          61 hlineto
          364 1214 rlineto
          hintmask 01101000
          50 154 50 -154 361 -1214 rlineto
          61 hlineto
          392 -70 callsubr
          rlineto
          endchar
        </CharString>
        <CharString name="W.smcp">
          517 0 82 -61 -21 1082 83 0 -20 hstemhm
          52 1488 hintmask 01011000
          1483 -18 callsubr
          -254 -883 rlineto
          hintmask 10011000
          -56 -200 -56 196 -290 887 rlineto
          -57 hlineto
          -294 -887 -55 -194 -55 198 -255 883 rlineto
          -59 hlineto
          336 -47 callgsubr
          rlineto
          58 hlineto
          311 952 rlineto
          hintmask 01101000
          41 130 349 -1082 rlineto
          59 hlineto
          334 -62 callgsubr
          rlineto
          endchar
        </CharString>
        <CharString name="X">
          147 -54 callgsubr
          54 1114 vstem
          611 785 rmoveto
          -470 671 rlineto
          -68 hlineto
          504 -713 -523 -743 rlineto
          65 hlineto
          492 701 490 -701 rlineto
          67 hlineto
          -523 743 504 713 rlineto
          -68 hlineto
          endchar
        </CharString>
        <CharString name="X.smcp">
          -21 -46 callgsubr
          46 963 vstem
          526 638 rmoveto
          -397 527 rlineto
          -67 hlineto
          432 -572 -448 -593 rlineto
          65 hlineto
          415 547 417 -547 rlineto
          66 hlineto
          -448 593 431 572 rlineto
          -68 hlineto
          endchar
        </CharString>
        <CharString name="Y">
          147 -54 callgsubr
          582 54 vstem
          609 602 -40 callgsubr
        </CharString>
        <CharString name="Y.smcp">
          -24 -46 callgsubr
          497 55 vstem
          1020 1165 -46 callsubr
        </CharString>
        <CharString name="Yacute">
          147 -54 callgsubr
          582 54 vstem
          751 1844 -90 callsubr
          -208 -1242 -40 callgsubr
        </CharString>
        <CharString name="Yacute.smcp">
          -24 -46 callgsubr
          497 55 vstem
          732 1563 -80 callsubr
          483 -132 -46 callsubr
        </CharString>
        <CharString name="Z">
          148 0 54 1349 53 hstem
          94 1036 vstem
          31 callsubr
          rmoveto
          930 1364 rlineto
          38 -964 -53 889 vlineto
          -929 -1359 rlineto
          -44 1036 54 vlineto
          endchar
        </CharString>
        <CharString name="Z.smcp">
          -23 0 54 1057 54 hstem
          80 892 vstem
          156 54 rmoveto
          788 1069 rlineto
          42 -831 -54 753 vlineto
          -786 -1065 rlineto
          -46 892 54 vlineto
          endchar
        </CharString>
        <CharString name="a">
          -75 callgsubr
          905 218 -105 callsubr
        </CharString>
        <CharString name="aacute">
          -75 callgsubr
          786 1535 -80 callsubr
          314 -1051 -105 callsubr
        </CharString>
        <CharString name="acircumflex">
          -75 callgsubr
          576 1459 -92 callgsubr
          514 -1045 -105 callsubr
        </CharString>
        <CharString name="acute">
          -565 3 callgsubr
          126 255 vstem
          315 24 callgsubr
          -90 callsubr
          endchar
        </CharString>
        <CharString name="acutecomb">
          -1076 3 callgsubr
          -574 255 vstem
          -385 24 callgsubr
          -90 callsubr
          endchar
        </CharString>
        <CharString name="adieresis">
          5 -20 53 -12 -21 549 55 444 54 263 111 -19 callsubr
          126 -73 callsubr
          -6 54 hintmask 1011110101000000
          356 1365 rmoveto
          -93 callgsubr
          hintmask 1011110110000000
          445 -93 callsubr
          hintmask 1011101101000000
          104 -1147 rmoveto
          542 vlineto
          228 -159 114 -225 -233 -167 -147 -169 vhcurveto
          54 -2 rlineto
          150 150 114 196 211 119 -106 -180 vhcurveto
          -158 -259 vlineto
          hintmask 1011110101000000
          -313 -187 -137 -193 -172 131 -122 202 215 139 101 117 72 hvcurveto
          hintmask 0111110101000000
          -70 6 -77 14 -51 vhcurveto
          62 9 hlineto
          hintmask 1011101101000000
          -18 44 -10 87 78 vvcurveto
          hintmask 1011110101000000
          -480 -185 rmoveto
          -164 -115 106 131 164 170 115 279 hvcurveto
          256 -257 hlineto
          -159 -72 -145 -100 12 callsubr
          endchar
        </CharString>
        <CharString name="ae">
          659 -20 52 545 55 416 54 hstemhm
          93 55 -27 53 639 57 733 54 hintmask 11110110
          870 577 rmoveto
          787 83 hlineto
          274 -152 168 -252 -176 -146 -111 -176 -70 vhcurveto
          191 -31 -127 96 -182 hhcurveto
          hintmask 11101110
          -245 -155 -137 -187 hvcurveto
          53 -7 rlineto
          158 126 119 221 198 94 -120 -208 vhcurveto
          -90 -290 vlineto
          hintmask 11110110
          -282 -148 -141 -205 -184 127 -120 228 233 139 131 107 49 hvcurveto
          -1 12 hlineto
          -154 69 137 -96 194 hhcurveto
          192 99 70 72 71 hvcurveto
          -30 42 rlineto
          -78 -77 -113 -52 -142 hhcurveto
          -279 -119 207 259 hvcurveto
          64 vlineto
          383 484 rmoveto
          231 119 -168 -216 hvcurveto
          -32 -730 vlineto
          236 23 140 180 217 hhcurveto
          -806 -1016 rmoveto
          -193 -106 94 154 158 118 137 259 hvcurveto
          288 -349 hlineto
          -72 -24 -152 -122 -190 hhcurveto
          endchar
        </CharString>
        <CharString name="agrave">
          -75 callgsubr
          631 1269 -97 callgsubr
          333 -1051 -105 callsubr
        </CharString>
        <CharString name="alpha">
          73 -21 -18 callgsubr
          122 56 718 54 vstem
          1138 42 rmoveto
          -5 -22 -18 -5 -25 hhcurveto
          -72 -51 51 172 hvcurveto
          827 -48 vlineto
          -6 -228 rlineto
          -17 vlineto
          157 -67 -118 108 -181 -27 callsubr
          37 callsubr
          182 122 101 137 65 vhcurveto
          -171 7 58 -67 114 hhcurveto
          24 25 2 12 24 hvcurveto
          -622 40 rmoveto
          -236 -113 200 25 callgsubr
          219 238 222 106 -198 -155 39 vhcurveto
          -352 vlineto
          -174 -45 -115 -136 12 callsubr
          endchar
        </CharString>
        <CharString name="alpha.alt">
          95 1 callsubr
          122 56 708 60 hintmask 00000000
          hintmask 01111000
          1041 hmoveto
          -95 540 88 542 rlineto
          -60 hlineto
          -58 -404 rlineto
          228 -47 -130 196 -209 -27 callsubr
          hintmask 10111000
          37 callsubr
          218 137 208 212 35 vhcurveto
          hintmask 01111000
          63 -399 rlineto
          -95 469 rmoveto
          hintmask 10111000
          -252 -34 -136 -184 -189 hhcurveto
          -236 -113 200 25 callgsubr
          219 238 232 98 -277 -182 27 vhcurveto
          endchar
        </CharString>
        <CharString name="ampersand">
          171 -26 callsubr
          1423 54 hstemhm
          115 54 88 55 470 56 246 55 hintmask 00000000
          hintmask 01111110
          1196 hmoveto
          -190 216 rlineto
          82 109 51 134 173 vvcurveto
          -55 hlineto
          -148 -44 -127 -71 -99 vhcurveto
          -474 539 151 121 rlineto
          75 61 117 111 123 vvcurveto
          145 -98 119 -178 -188 -117 -128 -182 -125 59 -108 106 -131 vhcurveto
          -51 -41 rlineto
          -138 -116 -118 -128 -166 vvcurveto
          hintmask 10111110
          -228 165 -144 269 174 139 83 114 111 vhcurveto
          hintmask 01111110
          156 -177 rlineto
          -817 1169 rmoveto
          138 87 116 163 144 76 -100 -110 -98 -76 -88 -85 -67 vhcurveto
          -159 -126 rlineto
          -103 122 -47 112 101 vvcurveto
          hintmask 10111110
          237 -1135 rmoveto
          -259 -121 153 165 88 34 111 199 172 hvcurveto
          52 42 11 -13 11 -14 12 -13 rlinecurve
          449 -508 rlineto
          -116 -100 -141 -67 -147 hhcurveto
          endchar
        </CharString>
        <CharString name="ampersand.smcp">
          171 -26 callsubr
          1127 54 hstemhm
          138 54 57 55 406 56 268 55 hintmask 00000000
          hintmask 01111110
          1152 hmoveto
          -189 186 rlineto
          78 96 48 120 130 vvcurveto
          -55 hlineto
          -122 -41 -105 -67 -83 vhcurveto
          -421 414 109 81 rlineto
          64 47 88 92 99 vvcurveto
          124 -91 102 -166 -161 -99 -99 -144 -102 69 -83 111 -111 vhcurveto
          -96 -71 rlineto
          -118 -87 -77 -80 -132 vvcurveto
          hintmask 10111110
          -179 140 -113 231 169 147 63 106 103 vhcurveto
          hintmask 01111110
          151 -149 rlineto
          -615 677 rmoveto
          -104 103 -56 81 79 vvcurveto
          101 72 86 133 132 69 -82 -90 -76 -51 -69 -70 -51 vhcurveto
          -119 -88 rlineto
          hintmask 10111110
          39 -637 rmoveto
          -215 -102 115 123 73 18 73 158 117 hvcurveto
          96 71 5 -4 5 -5 5 -5 rlinecurve
          413 -407 rlineto
          -96 -97 -138 -55 -148 hhcurveto
          endchar
        </CharString>
        <CharString name="aring">
          5 -20 53 -12 -21 549 55 444 54 109 54 236 54 -19 callsubr
          233 54 234 54 101 54 hintmask 1011111011100000
          579 1211 -82 callgsubr
          326 -1283 rmoveto
          542 vlineto
          228 -159 114 -225 vhcurveto
          hintmask 1011110111100000
          -233 -167 -147 -169 hvcurveto
          54 -2 rlineto
          150 150 114 196 211 119 -106 -180 vhcurveto
          -158 -259 vlineto
          hintmask 1011111011100000
          -313 -187 -137 -193 -172 131 -122 202 215 139 101 117 72 hvcurveto
          hintmask 0111111011100000
          -70 6 -77 14 -51 vhcurveto
          62 9 hlineto
          hintmask 1011111011100000
          -18 44 -10 87 78 vvcurveto
          -480 -185 rmoveto
          -164 -115 106 131 164 170 115 279 hvcurveto
          256 -257 hlineto
          -159 -72 -145 -100 12 callsubr
          endchar
        </CharString>
        <CharString name="asciicircum">
          -227 1382 74 0 -20 hstemhm
          91 650 hintmask 01100000
          741 729 rmoveto
          -299 727 rlineto
          -52 hlineto
          -299 -727 rlineto
          59 hlineto
          hintmask 10100000
          266 653 264 -653 rlineto
          endchar
        </CharString>
        <CharString name="asciitilde">
          336 443 53 224 54 hstem
          160 55 975 56 vstem
          1246 752 rmoveto
          -56 1 rlineto
          -157 -74 -100 -139 -87 -61 35 93 -101 vhcurveto
          93 -105 -74 57 -121 hhcurveto
          -185 -83 -143 -169 hvcurveto
          55 hlineto
          170 80 88 133 96 56 -38 -89 99 vhcurveto
          -97 108 70 -53 120 hhcurveto
          181 88 146 163 hvcurveto
          endchar
        </CharString>
        <CharString name="asterisk">
          -220 -39 callsubr
          hstem
          410.5 53 vstem
          393 1017 rmoveto
          -234 -324 45 -32 228 325 242 -322 47 33 -249 317 360 137 -20 53 -352 -143 7 395 rlineto
          -56 hlineto
          -1 -394 -362 133 -18 -54 rlineto
          endchar
        </CharString>
        <CharString name="at">
          826 -453 55 378 55 898 55 366 57 hstem
          129 55 390.42 52.66 1085.16 54.76 vstem
          1001 1411 rmoveto
          -504 -343 -362 -571 -25 hvcurveto
          -574 -24 294 -357 507 hhcurveto
          117 156 32 57 85 hvcurveto
          -24 46 rlineto
          -48 -82 -131 -32 -117 hhcurveto
          -487 -264 381 495 25 hvcurveto
          539 28 345 337 440 hhcurveto
          529 211 -321 -510 -27 hvcurveto
          -280 -12 -104 -208 -194 hhcurveto
          -64 -140 26 232 20 hvcurveto
          49 585 rlineto
          57 -65 -60 53 -125 hhcurveto
          -227 -179 -215 -337 -31 hvcurveto
          -274 -24 93 -182 182 hhcurveto
          148 112 78 152 73 hvcurveto
          -143 15 87 -87 133 hhcurveto
          250 111 287 256 9 hvcurveto
          544 23 -238 344 -551 hhcurveto
          -174 -1377 rmoveto
          -156 -63 179 223 24 hvcurveto
          344 37 168 153 175 hhcurveto
          90 63 -32 -50 43 hvcurveto
          -43 -507 rlineto
          -259 -84 -131 -51 -123 hhcurveto
          endchar
        </CharString>
        <CharString name="atilde">
          5 -20 53 -12 -21 549 55 444 54 198 23 callsubr
          -19 callsubr
          91 55 530 54 hintmask 1011111011000000
          442 1425 rmoveto
          -86 callsubr
          -99 callsubr
          463 -1207 rmoveto
          542 vlineto
          228 -159 114 -225 vhcurveto
          hintmask 1011110111000000
          -233 -167 -147 -169 hvcurveto
          54 -2 rlineto
          150 150 114 196 211 119 -106 -180 vhcurveto
          -158 -259 vlineto
          hintmask 1011111011000000
          -313 -187 -137 -193 -172 131 -122 202 215 139 101 117 72 hvcurveto
          hintmask 0111111011000000
          -70 6 -77 14 -51 vhcurveto
          62 9 hlineto
          hintmask 1011111011000000
          -18 44 -10 87 78 vvcurveto
          -480 -185 rmoveto
          -164 -115 106 131 164 170 115 279 hvcurveto
          256 -257 hlineto
          -159 -72 -145 -100 12 callsubr
          endchar
        </CharString>
        <CharString name="b">
          45 -26 callsubr
          1048 54 hstemhm
          -28 callsubr
          719 -38 callsubr
          54 171 vlineto
          hintmask 10111000
          -110 68 124 -81 177 hhcurveto
          256 150 221 330 hvcurveto
          21 32 callgsubr
          -151 209 -257 vhcurveto
          352 5 callgsubr
          -113 -209 -236 -201 -119 103 -16 callsubr
          113 -16 callgsubr
        </CharString>
        <CharString name="b.ss06">
          43 1 callsubr
          -28 callsubr
          739 -38 callsubr
          45 vlineto
          7 173 rlineto
          hintmask 10111000
          -111 68 124 -83 179 -24 callgsubr
          372 5 callgsubr
          -133 -210 -236 -201 -119 104 -16 callsubr
          133 -16 callgsubr
        </CharString>
        <CharString name="backslash">
          -302 -39 callsubr
          hstem
          57 666 vstem
          57 -31 callsubr
          608 -1581 rlineto
          58 hlineto
          -608 1581 rlineto
          endchar
        </CharString>
        <CharString name="bar">
          -670 -39 callsubr
          -9 callgsubr
          235 -270 rmoveto
          1726 -54 -1726 vlineto
          endchar
        </CharString>
        <CharString name="braceleft">
          -416 543 66 hstem
          323 54 vstem
          377 20 rmoveto
          245 vlineto
          151 -61 125 -150 35 vhcurveto
          150 35 61 123 151 vvcurveto
          247 vlineto
          199 83 158 197 63 vhcurveto
          -15 45 rlineto
          -244 -77 -75 -178 -210 vvcurveto
          -247 vlineto
          -168 -73 -108 -177 vhcurveto
          -66 vlineto
          177 73 -109 -169 hvcurveto
          -245 vlineto
          -210 75 -174 244 -77 vhcurveto
          20 46 rlineto
          -196 66 -89 148 201 vvcurveto
          endchar
        </CharString>
        <CharString name="braceright">
          -416 543 66 hstem
          284 54 vstem
          338 885 rmoveto
          247 vlineto
          210 -74 178 -245 77 vhcurveto
          -14 -45 rlineto
          197 -63 82 -158 -199 vvcurveto
          -247 vlineto
          -151 62 -123 149 -35 vhcurveto
          -149 -35 -62 -125 -151 vvcurveto
          -245 vlineto
          -201 -89 -148 -195 -66 vhcurveto
          19 -46 rlineto
          245 77 74 174 210 vvcurveto
          245 vlineto
          169 74 109 176 vhcurveto
          66 vlineto
          -176 -74 108 168 hvcurveto
          endchar
        </CharString>
        <CharString name="bracketleft">
          -637 -312 54 1868 54 -9 callgsubr
          464 1610 rmoveto
          54 -283 -1976 283 54 -229 1868 vlineto
          endchar
        </CharString>
        <CharString name="bracketright">
          -637 -312 54 1868 54 hstem
          220 55 vstem
          -8 1664 rmoveto
          -54 228 -1868 -228 -54 283 1976 vlineto
          endchar
        </CharString>
        <CharString name="brokenbar">
          -678 -39 callsubr
          14 callsubr
          226 698 rmoveto
          758 -54 -758 vlineto
          -968 vmoveto
          54 752 -54 hlineto
          endchar
        </CharString>
        <CharString name="bullet">
          -441 545 348 hstem
          155 334 vstem
          155 733 rmoveto
          -30 vlineto
          -91 64 -67 103 103 64 67 91 vhcurveto
          30 vlineto
          91 -64 69 -104 -102 -64 -68 -92 vhcurveto
          endchar
        </CharString>
        <CharString name="c">
          -37 -50 callgsubr
          hstem
          97 54 735 54 vstem
          886 328 rmoveto
          -5 callsubr
          -77 callsubr
          248 -10 -184 129 12 callsubr
          -279 -161 -10 callgsubr
          -317 161 -223 281 211 179 128 220 11 vhcurveto
          endchar
        </CharString>
        <CharString name="c.ss06">
          -14 -21 -18 callgsubr
          100 54 755 54 vstem
          909 328 rmoveto
          -207 -13 -165 -88 -169 hhcurveto
          -267 -141 216 271 hvcurveto
          42 vlineto
          269 141 217 265 178 161 -108 -215 10 -33 callgsubr
          248 -10 -184 129 12 callsubr
          -279 -181 -10 callgsubr
          -317 181 -224 281 211 179 129 220 11 vhcurveto
          endchar
        </CharString>
        <CharString name="ccedilla">
          -37 -445 49 376 -35 callgsubr
          hstem
          97 54 535 55 145 54 vstem
          539 34 rmoveto
          -77 callsubr
          248 -10 -184 129 12 callsubr
          -279 -161 -10 callgsubr
          -310 154 -220 269 -10 vhcurveto
          -23 -111 -80 callgsubr
          121 -88 39 -89 9 hvcurveto
          10 67 195 13 161 126 10 208 rlinecurve
          -54 hlineto
          -5 callsubr
          endchar
        </CharString>
        <CharString name="cedilla">
          -586 -435 49 hstem
          318 55 vstem
          207 hmoveto
          -53 hlineto
          -25 -121 -80 callgsubr
          121 -88 39 -89 9 hvcurveto
          endchar
        </CharString>
        <CharString name="cent">
          34 -19 53 1014 53 hstem
          134 54 361 55 319 54 vstem
          576 34 rmoveto
          -77 callsubr
          -10 236 -167 128 -196 12 rrcurveto
          217 -55 -217 vlineto
          -264 -13 -151 -219 -307 vvcurveto
          -42 vlineto
          -307 151 -218 264 -14 vhcurveto
          -226 55 226 vlineto
          199 11 163 126 11 210 rrcurveto
          -54 hlineto
          -5 callsubr
          endchar
        </CharString>
        <CharString name="circumflex">
          -280 1264 253 hstem
          152 504 vstem
          656 1274 -99 callgsubr
          endchar
        </CharString>
        <CharString name="colon">
          -712 -6 111 851 -8 callsubr
          119 111 -106 111 hintmask 00000000
          hintmask 11010000
          179 1067 rmoveto
          -107 callsubr
          hintmask 11100000
          -5 -962 rmoveto
          -107 callsubr
          endchar
        </CharString>
        <CharString name="comma">
          -693 -255 414 -9 callgsubr
          235 27 rmoveto
          132 -54 -134 -72 callsubr
        </CharString>
        <CharString name="copyright">
          590 -21 55 268 55 745 53 266 55 hstem
          123 56 327 55 511 52 363 56 vstem
          833 1476 rmoveto
          -391 -319 -324 -423 -423 319 -327 391 -30 callgsubr
          -295 307 388 388 295 -25 callsubr
          291 582 rmoveto
          -52 hlineto
          -179 -88 -80 -158 -169 -96 145 187 vhcurveto
          80 vlineto
          185 96 148 169 158 89 -86 -174 vhcurveto
          52 hlineto
          209 -118 104 -181 -191 -129 -158 -229 vhcurveto
          -79 vlineto
          -230 129 -157 191 181 117 104 210 vhcurveto
          endchar
        </CharString>
        <CharString name="crossbar">
          -265 721 54 hstem
          108 587 vstem
          695 721 rmoveto
          54 -587 15 callgsubr
        </CharString>
        <CharString name="currency">
          426 -20 53 1148 53 hstem
          149 55 1081 54 vstem
          1339 608 rmoveto
          165 -57 146 -94 110 vhcurveto
          192 196 -41 40 -191 -194 rlineto
          102 -105 -142 61 -156 hhcurveto
          -155 -142 -60 -102 -106 hvcurveto
          -188 192 -40 -39 189 -193 rlineto
          -96 -110 -58 -148 -166 vvcurveto
          -160 54 -143 90 -109 vhcurveto
          -179 -183 40 -39 177 180 rlineto
          -108 107 146 -66 161 hhcurveto
          161 147 66 110 107 hvcurveto
          179 -183 41 40 -182 186 rlineto
          88 109 53 142 158 vvcurveto
          -594 -575 rmoveto
          -296 -245 257 318 317 245 256 296 295 245 -256 -317 -318 -245 -257 -295 hvcurveto
          endchar
        </CharString>
        <CharString name="d">
          45 -26 callsubr
          1048 54 hstemhm
          122 56 719 54 hintmask 10111000
          897 24 callgsubr
          rmoveto
          -653 vlineto
          131 -68 -120 88 -179 -60 callgsubr
          179 123 82 112 67 vhcurveto
          hintmask 01111000
          -174 54 24 callgsubr
          vlineto
          hintmask 10111000
          -424 -1502 -22 callgsubr
          230 96 -146 -127 42 vhcurveto
          -506 vlineto
          -134 -23 callsubr
        </CharString>
        <CharString name="d.ss06">
          43 1 callsubr
          100 56 739 54 hintmask 10111000
          895 24 callgsubr
          rmoveto
          -653 vlineto
          131 -68 -120 88 -179 hhcurveto
          -257 -171 -209 9 callsubr
          170 -222 256 179 124 83 112 66 vhcurveto
          hintmask 01111000
          2 -174 rlineto
          52 24 callgsubr
          hlineto
          hintmask 10111000
          -424 -1503 rmoveto
          -236 -133 210 -63 callgsubr
          133 209 238 230 96 -146 -127 42 vhcurveto
          -506 vlineto
          -135 -23 callsubr
        </CharString>
        <CharString name="degree">
          -293 999 56 366 55 hstem
          156 55 357 56 vstem
          392 1476 rmoveto
          -130 -106 -109 -131 -133 106 -104 130 127 105 104 133 131 -105 109 -127 hvcurveto
          -421 vmoveto
          -103 -78 76 105 107 78 78 103 102 74 -78 -107 -105 -74 -76 -102 hvcurveto
          endchar
        </CharString>
        <CharString name="dieresis">
          -170 1366 -35 callsubr
          174 -73 callsubr
          vstem
          229 1477 rmoveto
          -107 callsubr
          24 callsubr
          -107 callsubr
          endchar
        </CharString>
        <CharString name="divide">
          83 246 111 329 52 286 -35 callsubr
          529 -8 callgsubr
          584 1135 rmoveto
          -107 callsubr
          487 -449 rmoveto
          52 -998 -52 vlineto
          511 -329 rmoveto
          -107 callsubr
          endchar
        </CharString>
        <CharString name="dollar">
          45 -21 53 -52 52 1392 53 hstemhm
          121 54 -7 54 332 55 -44 55 319 54 -46 54 hintmask 0000000000000000
          hintmask 0110101010000000
          1001 346 rmoveto
          240 -163 84 -245 84 vhcurveto
          -311 103 -60 91 164 vvcurveto
          158 112 154 245 vhcurveto
          hintmask 1010110100000000
          234 126 -162 -215 hvcurveto
          54 hlineto
          266 -144 152 -240 11 vhcurveto
          187 -55 -186 vlineto
          -236 -10 -150 -143 -214 vvcurveto
          -240 155 -83 253 -85 vhcurveto
          hintmask 1011001010000000
          284 -102 87 -82 -174 vvcurveto
          -161 -134 -151 -227 -190 -221 88 289 vhcurveto
          -54 hlineto
          -313 223 -110 221 -7 vhcurveto
          -187 55 vlineto
          hintmask 0110101010000000
          188 vlineto
          229 12 152 138 216 vvcurveto
          endchar
        </CharString>
        <CharString name="dollar.smcp">
          -35 -16 53 -52 52 1089 54 -54 55 hstemhm
          82 53 -13 53 337 54 336 54 -42 55 hintmask 1001011010000000
          969 282 rmoveto
          30 callgsubr
          -7 callgsubr
          vhcurveto
          hintmask 1001011100000000
          36 callgsubr
          hvcurveto
          54 hlineto
          hintmask 1010011100000000
          195 -160 140 -230 10 vhcurveto
          215 -54 vlineto
          hintmask 1001011010000000
          -214 vlineto
          -224 -8 -166 -109 -173 vvcurveto
          26 callgsubr
          -6 callsubr
          hintmask 1001101010000000
          17 callgsubr
          hintmask 0101101010000000
          -244 223 -92 207 -8 vhcurveto
          -222 54 vlineto
          hintmask 1001011010000000
          221 vlineto
          225 7 178 107 184 vvcurveto
          endchar
        </CharString>
        <CharString name="dotlessi">
          -29 callgsubr
          235 hmoveto
          -39 callgsubr
        </CharString>
        <CharString name="e">
          -44 -20 53 -69 callsubr
          141 577 -104 callgsubr
        </CharString>
        <CharString name="e.ss07">
          -44 -21 54 -69 callsubr
          141 577 rmoveto
          811 83 hlineto
          275 -171 167 -240 -250 -204 -222 -316 vhcurveto
          -64 vlineto
          -302 211 -219 263 170 106 63 81 75 vhcurveto
          -29 42 rlineto
          -95 -100 -98 -37 -124 hhcurveto
          -238 -182 208 259 hvcurveto
          64 vlineto
          400 484 rmoveto
          217 140 13 callgsubr
          25 153 181 219 hhcurveto
          endchar
        </CharString>
        <CharString name="eacute">
          -44 -20 53 -69 callsubr
          776 1534 -80 callsubr
          -440 -691 -104 callgsubr
        </CharString>
        <CharString name="ecircumflex">
          -44 -20 53 -69 callsubr
          566 1458 -92 callgsubr
          -240 -685 -104 callgsubr
        </CharString>
        <CharString name="edieresis">
          -44 -20 53 544 54 417 54 262 -35 callsubr
          87 54 150 -73 callsubr
          51 54 vstem
          346 1364 -101 callsubr
          -650 -787 -104 callgsubr
        </CharString>
        <CharString name="egrave">
          -44 -20 53 -69 callsubr
          621 1268 -97 callgsubr
          -421 -691 -104 callgsubr
        </CharString>
        <CharString name="eight">
          19 callsubr
          100 15 callsubr
          716 -95 callsubr
        </CharString>
        <CharString name="eight.frac">
          653 -76 callsubr
          1068 -104 callsubr
        </CharString>
        <CharString name="eight.smcp">
          -66 -16 53 532 54 503 55 hstemhm
          88 54 -17 54 653 54 -18 55 hintmask 11110010
          652 596 rmoveto
          hintmask 11101100
          138 41 96 100 130 vvcurveto
          203 -169 111 -212 -214 -166 -111 -203 -130 95 -100 139 -41 vhcurveto
          hintmask 11110010
          -160 -40 -111 -108 -143 vvcurveto
          -213 182 -108 237 231 185 108 213 142 -112 108 -159 41 vhcurveto
          hintmask 11101100
          -473 274 rmoveto
          160 140 96 186 182 145 -106 -150 -152 -144 -95 -181 -188 -140 95 152 vhcurveto
          hintmask 11110010
          328 -833 rmoveto
          -207 -158 94 171 162 158 105 205 201 162 -105 -162 -171 -160 -94 -201 hvcurveto
          endchar
        </CharString>
        <CharString name="eight.sup">
          -11 -76 callsubr
          404 -104 callsubr
        </CharString>
        <CharString name="eight.tnum">
          19 callsubr
          96 15 callsubr
          712 -95 callsubr
        </CharString>
        <CharString name="ellipsis">
          179 -6 -35 callsubr
          185 111 273 111 258 -8 callgsubr
          240 105 rmoveto
          -107 callsubr
          384 hmoveto
          -107 callsubr
          369 hmoveto
          -107 callsubr
          endchar
        </CharString>
        <CharString name="emdash">
          485 721 54 hstem
          109 1336 vstem
          1445 721 rmoveto
          54 -1336 15 callgsubr
        </CharString>
        <CharString name="endash">
          248 721 54 hstem
          156 1002 vstem
          1158 721 rmoveto
          54 -1002 15 callgsubr
        </CharString>
        <CharString name="equal">
          66 436 54 353 54 hstem
          147 834 vstem
          981 843 rmoveto
          54 -834 -54 vlineto
          834 -407 rmoveto
          54 -834 15 callgsubr
        </CharString>
        <CharString name="eth">
          107 -20 58 857 58 508 -20 hstem
          173 55 759 54 vstem
          802 1308 rmoveto
          189 105 -29 48 -202 -113 -105 95 -133 74 -164 60 rlinecurve
          -20 -50 140 -52 127 -65 104 -90 rlinecurve
          -220 -123 28 -48 235 131 118 -119 82 -158 26 -223 rlinecurve
          112 -80 -147 61 -150 hhcurveto
          -268 -160 -178 -310 -271 188 -214 268 240 172 226 329 hvcurveto
          80 vlineto
          304 -79 223 -160 166 vhcurveto
          185 -773 rmoveto
          -289 -137 -208 -217 -261 -144 213 214 240 111 190 262 214 124 -114 -109 47 vhcurveto
          1 -18 0 -18 -19 vvcurveto
          endchar
        </CharString>
        <CharString name="exclam">
          -679 -6 111 1351 -20 hstemhm
          147 111 -91 54 hintmask 11010000
          221 401 rmoveto
          1055 -54 -1055 vlineto
          hintmask 11100000
          35 -296 rmoveto
          -107 callsubr
          endchar
        </CharString>
        <CharString name="exclamdown">
          -670 992 -8 callsubr
          142 111 -74 54 hintmask 00000000
          hintmask 11000000
          198 992 -15 callgsubr
          hintmask 10100000
          -19 -296 rmoveto
          -1055 54 1055 vlineto
          endchar
        </CharString>
        <CharString name="f">
          -431 -72 callgsubr
          vstem
          538 1503 rmoveto
          4 callgsubr
          hvcurveto
          -84 callgsubr
          286 55 -286 -66 callsubr
          vhcurveto
          endchar
        </CharString>
        <CharString name="f_f">
          214 -72 callgsubr
          591 54 vstem
          254 1236 rmoveto
          -154 -28 callgsubr
          -36 callgsubr
          286 55 -286 -66 callsubr
          4 callgsubr
          vhcurveto
          34 callgsubr
          13 -42 -45 4 -41 hhcurveto
          37 callgsubr
          929 267 rmoveto
          4 callgsubr
          hvcurveto
          -84 callgsubr
          286 55 -286 -66 callsubr
          vhcurveto
          endchar
        </CharString>
        <CharString name="f_f_i">
          567 -72 callgsubr
          522 54 522 54 vstem
          884 -56 callsubr
          -522 -66 callsubr
          4 callgsubr
          vhcurveto
          -84 callgsubr
          522 -36 callgsubr
          286 55 -286 vlineto
          522 hmoveto
          -1082 54 1082 vlineto
          endchar
        </CharString>
        <CharString name="f_f_l">
          567 -72 callgsubr
          522 54 522 54 vstem
          1113 -1 callgsubr
          -522 -66 callsubr
          4 callgsubr
          vhcurveto
          -84 callgsubr
          522 -36 callgsubr
          286 55 -286 -66 callsubr
          99 95 -21 -21 98 vhcurveto
          -1461 54 1496 vlineto
          33 -117 -134 28 -96 hhcurveto
          endchar
        </CharString>
        <CharString name="f_l">
          -9 -72 callgsubr
          522 54 vstem
          537 1557 rmoveto
          -74 callgsubr
          286 55 -286 -66 callsubr
          99 95 -21 -21 98 vhcurveto
          -1461 54 1496 vlineto
          33 -117 -134 28 -96 hhcurveto
          endchar
        </CharString>
        <CharString name="fi">
          -9 -72 callgsubr
          522 54 vstem
          308 -56 callsubr
          -28 callgsubr
          -36 callgsubr
          286 55 -286 vlineto
          522 hmoveto
          -1082 54 1082 vlineto
          endchar
        </CharString>
        <CharString name="five">
          45 -20 54 828 54 487 53 hstem
          969 55 vstem
          231 762 rmoveto
          41 -16 rlineto
          71 76 93 45 154 hhcurveto
          241 133 -172 -228 -280 -116 -148 -239 -224 -132 123 226 -21 hvcurveto
          -55 hlineto
          -273 22 182 -130 228 hhcurveto
          294 116 205 279 284 -179 168 -251 -136 -121 -56 -41 -48 hvcurveto
          59 584 rlineto
          661 53 -710 hlineto
          endchar
        </CharString>
        <CharString name="five.frac">
          653 -69 callgsubr
          1071 -100 callgsubr
        </CharString>
        <CharString name="five.smcp">
          -66 -16 53 644 55 373 56 hstem
          868 55 vstem
          189 606 rmoveto
          41 -16 rlineto
          56 72 72 35 152 hhcurveto
          220 122 -124 -187 -216 -99 -117 -234 -162 -138 95 174 -18 hvcurveto
          -55 hlineto
          -218 19 182 -104 172 hhcurveto
          277 111 164 223 228 -170 137 -227 -128 -106 -42 -32 -45 hvcurveto
          57 447 rlineto
          609 56 -653 hlineto
          endchar
        </CharString>
        <CharString name="five.sup">
          -11 -69 callgsubr
          407 -100 callgsubr
        </CharString>
        <CharString name="five.tnum">
          55 endchar
        </CharString>
        <CharString name="four">
          45 21 -21 397 54 941 64 0 -20 hstemhm
          788 54 hintmask 11011000
          1094 451 rmoveto
          -252 1005 -65 hlineto
          -695 -1029 rlineto
          -30 706 -397 54 397 252 vlineto
          -928 54 rmoveto
          538 802 rlineto
          hintmask 11101000
          84 139 rlineto
          -941 vlineto
          endchar
        </CharString>
        <CharString name="four.frac">
          868 -42 callgsubr
          917 -90 callgsubr
        </CharString>
        <CharString name="four.smcp">
          -66 21 -21 310 55 740 60 0 -20 hstemhm
          706 54 hintmask 11011000
          985 365 rmoveto
          -225 800 -64 hlineto
          -624 -822 rlineto
          -33 634 -310 54 310 225 vlineto
          -832 55 rmoveto
          480 626 rlineto
          hintmask 11101000
          73 114 rlineto
          -740 vlineto
          endchar
        </CharString>
        <CharString name="four.sup">
          21 -21 204 -42 callgsubr
          253 -90 callgsubr
        </CharString>
        <CharString name="four.tnum">
          149 endchar
        </CharString>
        <CharString name="fraction">
          -171 131 1169 hstem
          65 756 vstem
          110 131 -2 callsubr
          endchar
        </CharString>
        <CharString name="g">
          47 -436 53 363 -35 callgsubr
          hstem
          121 55 719 55 vstem
          895 1082 rmoveto
          -197 vlineto
          130 -69 -120 87 -177 -60 callgsubr
          178 123 81 111 67 vhcurveto
          -157 vlineto
          -243 -121 -155 -235 -134 -96 59 106 -84 vhcurveto
          -38 -36 rlineto
          -107 78 118 -75 158 -40 callsubr
          -1048 rmoveto
          -236 -114 209 -63 callgsubr
          114 209 -37 callgsubr
          -137 -3 callsubr
        </CharString>
        <CharString name="g.alt">
          0 -438 54 508 54 241 54 555 54 -34 54 hstemhm
          90 54 3 54 47 54 558 54 21 54 hintmask 0000000000000000
          hintmask 1111001111000000
          619 178 rmoveto
          -190 hlineto
          -62 -65 20 90 74 56 50 38 27 hvcurveto
          -13 42 45 -7 49 hhcurveto
          hintmask 1111001110000000
          221 161 146 175 hvcurveto
          22 vlineto
          111 -51 94 -85 61 vhcurveto
          202 hlineto
          -2 54 rlineto
          -310 hlineto
          hintmask 1110101110000000
          13 -42 -47 7 -49 hhcurveto
          -220 -163 -143 -197 hvcurveto
          -22 vlineto
          -118 74 -105 117 -56 vhcurveto
          -44 -37 -46 -55 -81 vvcurveto
          -73 32 -44 45 -24 vhcurveto
          hintmask 1111010111000000
          -123 -51 -112 -102 -146 vvcurveto
          -158 138 -128 266 318 177 178 153 vhcurveto
          hintmask 1111001111000000
          190 -159 95 -211 vhcurveto
          hintmask 1110101110000000
          -418 562 rmoveto
          22 vlineto
          150 130 136 199 200 130 -136 -150 vhcurveto
          -22 vlineto
          -131 -128 -136 -200 -53 -48 9 16 -42 vhcurveto
          1 vlineto
          -118 45 -70 100 96 vvcurveto
          hintmask 1111010111000000
          293 -1124 rmoveto
          -241 -109 104 128 132 128 123 150 21 hvcurveto
          7 hlineto
          190 hlineto
          220 96 -101 -130 -125 -157 -152 -284 hvcurveto
          endchar
        </CharString>
        <CharString name="g.ss06">
          46 -436 53 362 -18 callgsubr
          100 55 739 55 vstem
          903 1082 rmoveto
          -8 -200 rlineto
          131 -68 -121 89 -178 hhcurveto
          -257 -171 -209 9 callsubr
          170 -222 -43 callsubr
          -17 -47 rlineto
          -45 89 126 -24 100 -40 callsubr
          -1049 rmoveto
          -236 -134 210 -63 callgsubr
          134 209 -37 callgsubr
          -138 -3 callsubr
        </CharString>
        <CharString name="g.ss07">
          47 -436 53 362 -18 callgsubr
          121 55 719 55 vstem
          904 1082 rmoveto
          -8 -200 rlineto
          131 -68 -121 89 -178 -27 callsubr
          -330 150 -212 -43 callsubr
          -16 -54 rlineto
          -41 89 125 -21 100 -40 callsubr
          -1049 rmoveto
          -236 -114 200 -63 callgsubr
          114 219 -37 callgsubr
          -138 -3 callsubr
        </CharString>
        <CharString name="germandbls">
          107 -21 53 -11 -21 1481 54 hstemhm
          164 54 413 54 59 60 204 54 hintmask 00000000
          hintmask 01111110
          218 hmoveto
          1143 vlineto
          246 113 92 172 122 119 -97 -125 vhcurveto
          -179 -113 -44 -205 -246 377 -49 -230 vvcurveto
          hintmask 10111110
          -147 -133 -127 -188 -106 -120 43 42 -53 vhcurveto
          -25 -49 rlineto
          -48 54 142 -41 116 hhcurveto
          164 203 116 202 hvcurveto
          272 -377 52 208 208 119 31 189 vvcurveto
          168 -153 110 -158 -212 -117 -139 -253 vhcurveto
          hintmask 01111110
          -1143 vlineto
          endchar
        </CharString>
        <CharString name="grave">
          -539 3 callgsubr
          149 254 vstem
          403 1270 -97 callgsubr
          endchar
        </CharString>
        <CharString name="gravecomb">
          -1076 3 callgsubr
          -744 254 vstem
          -490 1270 -97 callgsubr
          endchar
        </CharString>
        <CharString name="greater">
          -23 265 807 hstem
          114 836 vstem
          114 1072 rmoveto
          -59 vlineto
          759 -345 -759 -344 rlineto
          -59 vlineto
          836 379 rlineto
          50 vlineto
          endchar
        </CharString>
        <CharString name="guillemotleft">
          -171 145 759 hstem
          145 652 vstem
          510 904 -65 callsubr
          581 379 -65 callsubr
          endchar
        </CharString>
        <CharString name="guillemotright">
          -179 171 769 hstem
          128 654 vstem
          492 541 rmoveto
          19 vlineto
          -294 380 rlineto
          -32 callgsubr
          290 769 rmoveto
          -32 callgsubr
          294 370 rlineto
          19 vlineto
          endchar
        </CharString>
        <CharString name="guilsinglleft">
          -472 181 759 hstem
          108 365 vstem
          473 940 -65 callsubr
          endchar
        </CharString>
        <CharString name="guilsinglright">
          -472 171 769 hstem
          106 364 vstem
          176 940 rmoveto
          -32 callgsubr
          294 370 rlineto
          19 vlineto
          endchar
        </CharString>
        <CharString name="h">
          45 -4 callgsubr
          674 54 vstem
          610 1102 -21 callgsubr
          705 -54 -1536 -83 callsubr
        </CharString>
        <CharString name="hyphen">
          -469 -22 callsubr
        </CharString>
        <CharString name="i">
          -654 21 -21 1365 -8 callsubr
          157 111 -83 54 hintmask 00000000
          hintmask 11100000
          212 1476 rmoveto
          -107 callsubr
          hintmask 11010000
          27 -1476 rmoveto
          -39 callgsubr
        </CharString>
        <CharString name="iacute">
          -29 callgsubr
          352 1512 -90 callsubr
          -183 -1512 rmoveto
          -39 callgsubr
        </CharString>
        <CharString name="icircumflex">
          -29 callgsubr
          463 1250 -99 callgsubr
          -228 -1240 rmoveto
          -39 callgsubr
        </CharString>
        <CharString name="idieresis">
          -670 21 -21 1342 -35 callsubr
          -67 17 callsubr
          -12 1453 rmoveto
          -107 callsubr
          24 callsubr
          -107 callsubr
          -198 -1453 rmoveto
          -39 callgsubr
        </CharString>
        <CharString name="igrave">
          -29 callgsubr
          263 1246 -97 callgsubr
          31 -1246 rmoveto
          -39 callgsubr
        </CharString>
        <CharString name="j">
          -631 -437 54 1748 -8 callsubr
          163 111 -88 54 hintmask 00000000
          hintmask 11100000
          218 1476 rmoveto
          -107 callsubr
          hintmask 11010000
          22 -394 rmoveto
          -54 -1211 hlineto
          -161 -83 -93 -148 -37 -37 10 8 -21 vhcurveto
          -3 -52 rlineto
          -13 32 32 -7 34 hhcurveto
          179 106 109 199 hvcurveto
          endchar
        </CharString>
        <CharString name="k">
          -107 21 -21 14 callsubr
          953 hmoveto
          -528 622 497 460 rlineto
          -77 hlineto
          -492 -455 -127 -120 rlineto
          1029 -54 -1536 54 449 vlineto
          157 134 2 2 498 -585 rlineto
          endchar
        </CharString>
        <CharString name="k.alt">
          -107 21 -21 553 54 14 callsubr
          883 hmoveto
          70 hlineto
          -539 589 502 493 rlineto
          -71 hlineto
          -492 -475 rlineto
          -127 929 -54 -1536 54 553 148 hlineto
          endchar
        </CharString>
        <CharString name="k.alt2">
          -151 21 -21 533 54 14 callsubr
          801 hmoveto
          72 hlineto
          -574 563 547 519 rlineto
          -73 hlineto
          -527 -495 rlineto
          -20 973 -54 -1560 54 533 31 hlineto
          endchar
        </CharString>
        <CharString name="l">
          -654 21 -21 22 callgsubr
          vstem
          239 hmoveto
          24 callgsubr
          -54 -1536 vlineto
          endchar
        </CharString>
        <CharString name="less">
          -23 262 807 hstem
          82 837 vstem
          919 1069 rmoveto
          -837 -378 rlineto
          -50 vlineto
          837 -379 rlineto
          59 vlineto
          -764 345 764 345 rlineto
          endchar
        </CharString>
        <CharString name="logicalnot">
          25 700 53 hstem
          861 54 vstem
          122 753 rmoveto
          -53 739 -304 54 357 vlineto
          endchar
        </CharString>
        <CharString name="longs">
          -654 21 -21 1503 54 hstem
          174 54 vstem
          174 hmoveto
          54 1236 hlineto
          169 87 98 142 54 28 -5 -10 37 vhcurveto
          34 callgsubr
          13 -41 -45 4 -42 hhcurveto
          -176 -106 -37 callsubr
          endchar
        </CharString>
        <CharString name="longst">
          91 -26 callsubr
          1027 55 421 54 hstemhm
          254 54 449 55 hintmask 10111100
          1082 -24 callsubr
          406 vlineto
          37 -74 -102 32 -100 hhcurveto
          -176 -106 -64 callgsubr
          vlineto
          hintmask 01111100
          -1027 54 1236 vlineto
          169 87 98 142 72 98 -22 -29 50 vhcurveto
          -370 39 callsubr
          -768 vlineto
          hintmask 10111100
          -1 callsubr
        </CharString>
        <CharString name="m">
          760 21 -21 1049 53 hstem
          161 55 676 54 680 54 vstem
          1333 33 callsubr
          -194 -145 -113 -143 -59 hvcurveto
          181 -35 -119 75 -182 hhcurveto
          -183 -136 -121 -154 -64 hvcurveto
          255 -55 -1082 55 684 vlineto
          141 28 111 224 241 hhcurveto
          172 124 -70 -259 hvcurveto
          -720 54 720 vlineto
          10 116 119 210 255 3 rrcurveto
          172 2 124 -76 -275 vvcurveto
          -700 54 700 vlineto
          287 -128 115 -219 vhcurveto
          endchar
        </CharString>
        <CharString name="macron">
          -265 1383 53 hstem
          132 567 vstem
          699 1383 rmoveto
          53 -567 -53 vlineto
          endchar
        </CharString>
        <CharString name="minus">
          91 721 54 hstem
          163 835 vstem
          998 721 rmoveto
          54 -835 15 callgsubr
        </CharString>
        <CharString name="multiply">
          -24 20 -21 hstem
          98 846 vstem
          944 36 rmoveto
          -385 393 357 364 -39 39 -356 -364 -357 364 -39 -39 358 -364 -385 -393 39 -37 384 391 384 -391 rlineto
          endchar
        </CharString>
        <CharString name="n">
          45 -4 callgsubr
          674 54 vstem
          610 1102 -21 callgsubr
          251 -54 -1082 -83 callsubr
        </CharString>
        <CharString name="nine">
          45 -20 54 434 54 900 54 hstem
          103 54 782 54 vstem
          531 1476 rmoveto
          -257 -171 -236 -282 -263 164 -227 256 186 157 100 156 73 hvcurveto
          -6 vlineto
          -421 -189 -263 -418 vhcurveto
          -32 hlineto
          -2 -54 rlineto
          34 hlineto
          447 214 276 484 hvcurveto
          163 vlineto
          383 -171 190 -291 vhcurveto
          -8 -954 rmoveto
          -231 -135 212 224 236 146 228 232 254 150 -174 -346 hvcurveto
          -61 vlineto
          -146 -39 -135 -173 -242 hhcurveto
          endchar
        </CharString>
        <CharString name="nine.frac">
          656 -68 callsubr
          1464 -103 callsubr
        </CharString>
        <CharString name="nine.smcp">
          -66 -14 54 336 54 696 55 hstem
          85 61 677 54 vstem
          478 1181 rmoveto
          -232 -161 -188 -225 -208 153 -184 232 158 131 77 115 64 hvcurveto
          -318 -1 -162 -210 -362 hhcurveto
          -28 hlineto
          -2 -54 rlineto
          30 hlineto
          395 184 239 376 hvcurveto
          119 vlineto
          297 -146 164 -253 vhcurveto
          -6 -751 rmoveto
          -207 -119 165 174 184 129 173 206 214 128 -136 -268 hvcurveto
          -48 vlineto
          -114 -34 -115 -130 -202 hhcurveto
          endchar
        </CharString>
        <CharString name="nine.sup">
          -8 -68 callsubr
          800 -103 callsubr
        </CharString>
        <CharString name="nine.tnum">
          76 endchar
        </CharString>
        <CharString name="ntilde">
          45 21 -21 1049 53 196 23 callsubr
          hstemhm
          32 callsubr
          41 -17 callgsubr
          -6 54 hintmask 11111101
          443 1423 rmoveto
          118 25 -125 144 hhcurveto
          hintmask 11111110
          98 78 75 111 hvcurveto
          -55 hlineto
          -84 -55 -47 -66 vhcurveto
          -112 -36 124 -139 hhcurveto
          -99 -77 -69 -110 hvcurveto
          55 hlineto
          hintmask 11111101
          84 54 41 67 vhcurveto
          167 -321 -21 callgsubr
          251 -54 -1082 -83 callsubr
        </CharString>
        <CharString name="numbersign">
          45 21 -21 410 52 524 54 416 -20 hstem
          51 1116 vstem
          1167 986 rmoveto
          54 -254 vlineto
          76 416 rlineto
          -56 hlineto
          -76 -416 rlineto
          -364 hlineto
          75 416 rlineto
          -56 hlineto
          -75 -416 rlineto
          -310 -54 300 hlineto
          -95 -524 rlineto
          -281 -52 271 hlineto
          -74 -410 rlineto
          56 hlineto
          74 410 rlineto
          364 hlineto
          -75 -410 rlineto
          56 hlineto
          75 410 rlineto
          294 52 -285 hlineto
          96 524 rlineto
          -152 -524 rmoveto
          -363 hlineto
          95 524 rlineto
          364 hlineto
          endchar
        </CharString>
        <CharString name="o">
          -52 callsubr
          90 562 -105 callgsubr
        </CharString>
        <CharString name="o.ss06">
          51 -21 -18 callgsubr
          90 -10 callsubr
          90 562 rmoveto
          22 callsubr
          204 -224 271 270 202 224 317 vhcurveto
          42 vlineto
          317 -202 223 -272 -269 -204 -31 callgsubr
          vhcurveto
          54 -42 rmoveto
          -13 callgsubr
          167 233 252 253 167 -233 -253 vhcurveto
          -42 35 callgsubr
          -167 -228 -251 -254 -167 228 259 vhcurveto
          endchar
        </CharString>
        <CharString name="oacute">
          -52 callsubr
          710 1533 -90 callsubr
          -686 -971 -105 callgsubr
        </CharString>
        <CharString name="ocircumflex">
          -52 callsubr
          821 1271 -99 callgsubr
          -731 -699 -105 callgsubr
        </CharString>
        <CharString name="odieresis">
          51 -50 callgsubr
          261 -35 callsubr
          90 54 147 -73 callsubr
          136 54 vstem
          346 1474 rmoveto
          -107 callsubr
          24 callsubr
          -107 callsubr
          -701 -912 -105 callgsubr
        </CharString>
        <CharString name="oe">
          848 -20 54 543 54 417 54 hstem
          92 54 839 59 757 54 vstem
          1044 577 rmoveto
          811 83 hlineto
          275 -174 167 -240 -198 -167 -139 -215 -61 vhcurveto
          215 -60 -166 139 -224 hhcurveto
          -280 -193 -10 callgsubr
          -317 193 -223 282 221 165 138 213 61 vhcurveto
          -211 62 176 -140 192 hhcurveto
          171 118 52 91 82 hvcurveto
          -29 42 rlineto
          -84 -73 -101 -47 -168 hhcurveto
          -227 -173 207 259 hvcurveto
          64 vlineto
          -59 -44 rmoveto
          -259 -155 -227 -263 -266 -155 227 259 vhcurveto
          18 callsubr
          265 155 -233 -253 vhcurveto
          456 486 rmoveto
          217 143 13 callgsubr
          24 151 181 219 hhcurveto
          endchar
        </CharString>
        <CharString name="ograve">
          -52 callsubr
          621 1267 -97 callgsubr
          -472 -705 -105 callgsubr
        </CharString>
        <CharString name="one">
          45 21 -21 1460 -20 hstem
          605 54 vstem
          659 hmoveto
          1460 -11 vlineto
          -461 -170 rlineto
          -59 vlineto
          418 157 rlineto
          -1388 vlineto
          endchar
        </CharString>
        <CharString name="one.smcp">
          -66 21 -21 1168 -20 hstem
          542 54 vstem
          596 hmoveto
          1168 -11 vlineto
          -418 -139 rlineto
          -59 vlineto
          375 123 rlineto
          -1093 vlineto
          endchar
        </CharString>
        <CharString name="one.sup">
          21 -21 10 callgsubr
          hmoveto
          -53 callsubr
        </CharString>
        <CharString name="one.tnum">
          -95 endchar
        </CharString>
        <CharString name="ordfeminine">
          -178 691 55 332 54 290 54 hstem
          31 callsubr
          435 55 vstem
          738 705 rmoveto
          -17 58 -9 58 65 vvcurveto
          314 vlineto
          183 -105 93 -149 -175 -116 -98 -135 -33 callgsubr
          121 92 58 145 132 67 -83 -138 vhcurveto
          -69 -170 vlineto
          -202 -117 -87 -145 -126 88 -83 161 108 87 64 69 46 hvcurveto
          3 -42 7 -41 12 -36 rrcurveto
          -262 41 rmoveto
          -140 -56 64 94 120 97 54 169 hvcurveto
          169 -178 hlineto
          -73 -24 -111 -81 -104 hhcurveto
          endchar
        </CharString>
        <CharString name="ordmasculine">
          -162 690 54 678 54 hstem
          148 54 502 53 vstem
          148 1141 rmoveto
          -117 vlineto
          -195 116 -139 190 188 115 139 195 vhcurveto
          117 vlineto
          195 -115 140 -190 -188 -116 -140 -195 vhcurveto
          54 -117 rmoveto
          117 vlineto
          154 82 127 168 170 82 -127 -154 vhcurveto
          -117 vlineto
          -155 -82 -125 -168 -176 -76 125 155 vhcurveto
          endchar
        </CharString>
        <CharString name="oslash">
          45 -50 callgsubr
          hstem
          87 -10 callsubr
          832 1016 rmoveto
          99 203 rlineto
          -63 hlineto
          -84 -172 rlineto
          36 -65 -75 19 -84 hhcurveto
          -280 -193 -10 callgsubr
          -206 81 -166 135 -91 vhcurveto
          -98 -202 rlineto
          63 hlineto
          84 173 rlineto
          -31 62 71 -17 77 hhcurveto
          281 191 223 317 hvcurveto
          42 vlineto
          199 -75 162 -127 93 vhcurveto
          -691 -496 rmoveto
          18 callsubr
          76 67 -19 -33 56 vhcurveto
          -431 -889 rlineto
          -121 88 -66 156 169 vvcurveto
          839 hmoveto
          -259 -155 -227 -263 -70 -62 16 27 -54 vhcurveto
          431 886 rlineto
          111 -90 62 -152 -159 vvcurveto
          endchar
        </CharString>
        <CharString name="otilde">
          51 -50 callgsubr
          196 12 callgsubr
          90 54 112 -17 callgsubr
          88 54 vstem
          895 1484 rmoveto
          -99 callsubr
          -86 callsubr
          -805 -922 -105 callgsubr
        </CharString>
        <CharString name="p">
          -41 callsubr
          193 -54 -1498 -84 callsubr
        </CharString>
        <CharString name="p.ss06">
          43 -21 -18 callgsubr
          170 54 740 55 vstem
          591 33 callsubr
          -176 -122 -86 -128 -70 hvcurveto
          -11 194 rlineto
          -42 -1498 54 584 hlineto
          -109 68 125 -80 176 -24 callgsubr
          373 5 callgsubr
          -134 -210 -236 -198 -121 101 135 -51 vhcurveto
          506 vlineto
          127 42 96 146 230 hhcurveto
          238 134 -16 callgsubr
        </CharString>
        <CharString name="paragraph">
          -130 -54 callgsubr
          716 54 vstem
          716 hmoveto
          54 -70 callsubr
          -179 hlineto
          -319 -173 -200 -268 -270 173 -198 319 hvcurveto
          125 hlineto
          endchar
        </CharString>
        <CharString name="parenleft">
          -469 -470 2093 hstem
          148 54 vstem
          148 586 rmoveto
          -20 vlineto
          -486 191 -409 223 -141 vhcurveto
          19 43 rlineto
          -198 131 -181 428 432 vvcurveto
          26 vlineto
          432 181 428 198 130 vhcurveto
          -19 43 rlineto
          -223 -141 -191 -435 -461 vvcurveto
          endchar
        </CharString>
        <CharString name="parenright">
          -453 -470 2093 hstem
          407 54 vstem
          461 566 rmoveto
          20 vlineto
          461 -191 435 -223 141 vhcurveto
          -19 -43 rlineto
          198 -130 181 -428 -432 vvcurveto
          -26 vlineto
          -432 -181 -428 -198 -131 vhcurveto
          19 -43 rlineto
          223 141 191 409 486 vvcurveto
          endchar
        </CharString>
        <CharString name="percent">
          451 -21 55 568 55 143 55 567 55 hstem
          114 55 433 55 213 55 433 55 vstem
          114 1176 rmoveto
          -77 vlineto
          -163 109 -136 165 161 108 136 163 vhcurveto
          77 vlineto
          165 -109 136 -162 -163 -109 -136 -165 vhcurveto
          55 -77 rmoveto
          77 vlineto
          123 73 123 144 146 70 -123 -123 vhcurveto
          -77 vlineto
          -122 -69 -122 -145 -149 -70 123 121 vhcurveto
          253 -968 -2 callsubr
          493 195 rmoveto
          -78 vlineto
          -164 109 -136 164 162 108 136 164 vhcurveto
          78 vlineto
          164 -108 136 -164 -162 -109 -136 -164 vhcurveto
          55 -78 rmoveto
          78 vlineto
          134 73 111 143 147 70 -111 -134 vhcurveto
          -78 vlineto
          -123 -69 -122 -146 -149 -69 123 122 vhcurveto
          endchar
        </CharString>
        <CharString name="period">
          -637 -6 -35 callsubr
          147 -8 callgsubr
          202 105 rmoveto
          -107 callsubr
          endchar
        </CharString>
        <CharString name="periodcentered">
          -604 651 -35 callsubr
          179 -8 callgsubr
          234 762 rmoveto
          -107 callsubr
          endchar
        </CharString>
        <CharString name="plus">
          25 callsubr
          1071 702 rmoveto
          -481 504 -55 -504 -462 -53 462 -503 55 503 481 hlineto
          endchar
        </CharString>
        <CharString name="plusminus">
          1 -1 54 698 54 hstem
          515 54 vstem
          569 805 rmoveto
          462 -54 -462 -443 -54 443 -462 54 462 419 54 vlineto
          -866 -806 rmoveto
          835 54 -835 hlineto
          endchar
        </CharString>
        <CharString name="q">
          45 -50 callgsubr
          hstem
          122 56 719 54 vstem
          897 1082 rmoveto
          -193 vlineto
          128 -70 -121 85 -176 -60 callgsubr
          176 125 80 108 13 callsubr
          -1048 -22 callgsubr
          226 100 -151 -122 42 vhcurveto
          -506 vlineto
          -134 -23 callsubr
        </CharString>
        <CharString name="q.ss06">
          43 -21 -18 callgsubr
          100 56 739 54 vstem
          900 1082 rmoveto
          -5 -193 rlineto
          127 -70 -121 86 -176 hhcurveto
          -257 -171 -219 9 callsubr
          170 -212 256 176 125 80 109 13 callsubr
          -1049 rmoveto
          -236 -133 200 -63 callgsubr
          133 219 238 226 100 -151 -122 42 vhcurveto
          -506 vlineto
          -135 -23 callsubr
        </CharString>
        <CharString name="question">
          -183 -6 111 1318 53 hstemhm
          93 54 224 111 -87 54 298 54 hintmask 11101100
          395 400 rmoveto
          54 hlineto
          115 33 106 99 77 vhcurveto
          150 135 70 101 176 vvcurveto
          208 -120 158 -223 -196 -166 -130 -230 -3 -33 callgsubr
          180 4 114 127 193 hhcurveto
          193 96 -132 -179 -183 -72 -72 -122 -117 hvcurveto
          -118 -108 -38 -84 -2 -148 rrcurveto
          hintmask 11110100
          31 -295 rmoveto
          -107 callsubr
          endchar
        </CharString>
        <CharString name="questiondown">
          -164 -381 53 1318 -8 callsubr
          108 54 265 111 -78 54 248 54 hintmask 00000000
          hintmask 11110100
          483 990 -15 callgsubr
          hintmask 10101100
          31 -295 rmoveto
          -54 hlineto
          -115 0 -58 -99 -77 vhcurveto
          -150 -135 -103 -122 -203 vvcurveto
          -217 130 -149 223 196 156 118 242 3 vhcurveto
          -54 hlineto
          -180 -4 -104 -127 -193 hhcurveto
          -193 -106 117 194 210 105 93 122 117 hvcurveto
          118 108 5 36 2 148 rrcurveto
          endchar
        </CharString>
        <CharString name="quotedbl">
          -555 1122 414 hstem
          155 55 147 54 vstem
          210 1393 rmoveto
          143 -55 -146 vlineto
          -5 -268 rlineto
          50 hlineto
          211 271 rmoveto
          143 -54 -146 vlineto
          -6 -268 rlineto
          50 hlineto
          endchar
        </CharString>
        <CharString name="quotedblbase">
          -595 -182 410 hstem
          136 54 117 -41 callgsubr
          171 hmoveto
          128 -54 -130 -72 callsubr
        </CharString>
        <CharString name="quotedblleft">
          -576 1168 386 hstem
          95 54 132 54 vstem
          95 1272 rmoveto
          -59 callsubr
          186 hmoveto
          -59 callsubr
          endchar
        </CharString>
        <CharString name="quotedblright">
          -574 1183 -20 hstem
          166 54 128 -42 callsubr
          182 hmoveto
          103 -54 -105 -72 callsubr
        </CharString>
        <CharString name="quoteleft">
          -756 1168 386 hstem
          101 54 vstem
          101 1272 rmoveto
          -59 callsubr
          endchar
        </CharString>
        <CharString name="quoteright">
          -756 1183 -20 hstem
          166 -42 callsubr
          endchar
        </CharString>
        <CharString name="quotesinglbase">
          -776 -182 410 hstem
          136 -41 callgsubr
          endchar
        </CharString>
        <CharString name="quotesingle">
          -736 1122 414 hstem
          145 55 vstem
          200 1367 rmoveto
          169 -55 -171 vlineto
          -9 -243 rlineto
          50 hlineto
          endchar
        </CharString>
        <CharString name="r">
          -391 -4 callgsubr
          vstem
          579 33 callsubr
          -177 -116 -95 -150 -60 hvcurveto
          225 -54 -1082 54 708 vlineto
          195 35 117 146 201 hhcurveto
          25 24 -3 -3 21 hvcurveto
          6 48 rlineto
          6 -17 -26 5 -33 hhcurveto
          endchar
        </CharString>
        <CharString name="registered">
          598 -21 55 644 56 367 55 265 55 hstemhm
          115 55 423 55 396 56 -34 55 358 56 hintmask 1111111010000000
          825 1476 rmoveto
          -392 -318 -324 -423 -423 318 -327 392 -30 callgsubr
          -296 307 388 388 296 -25 callsubr
          hintmask 1111110110000000
          296 882 rmoveto
          158 -97 82 -192 vhcurveto
          -239 -830 55 352 212 hlineto
          hintmask 1111111010000000
          135 49 -49 -125 hvcurveto
          -34 vlineto
          -29 0 -81 14 -34 vhcurveto
          59 16 hlineto
          -11 30 -6 47 50 vvcurveto
          36 vlineto
          94 -32 81 -101 30 vhcurveto
          hintmask 1111110110000000
          97 39 57 68 99 vvcurveto
          -268 -182 rmoveto
          -205 367 184 hlineto
          177 57 -59 -125 -120 -97 -63 -116 hvcurveto
          endchar
        </CharString>
        <CharString name="ring">
          -490 1212 54 236 54 hstem
          114 54 234 54 vstem
          285 1556 rmoveto
          -96 -75 -76 -98 -98 75 -72 96 95 76 72 98 98 -76 76 -95 hvcurveto
          -290 vmoveto
          -68 -49 47 69 71 49 49 68 68 49 -49 -71 -69 -49 -47 -68 hvcurveto
          endchar
        </CharString>
        <CharString name="s">
          -57 -50 callgsubr
          hstemhm
          108 54 -19 54 642 54 hintmask 11011000
          509 532 rmoveto
          -11 callsubr
          hintmask 11101000
          -53 callgsubr
          hintmask 11011000
          -34 callgsubr
          184 -145 125 -242 -5 callgsubr
          vhcurveto
          endchar
        </CharString>
        <CharString name="section">
          147 -495 54 605 32 1226 54 hstemhm
          115 54 -48 54 -9 54 775 55 -32 54 -32 54 hintmask 1110011000000000
          790 164 rmoveto
          hintmask 1110010010000000
          187 27 117 100 140 vvcurveto
          225 -180 73 -298 75 vhcurveto
          -320 92 -76 72 164 vvcurveto
          160 123 130 275 vhcurveto
          hintmask 1110010100000000
          259 141 -169 -208 hvcurveto
          54 hlineto
          278 -171 153 -283 -275 -177 -137 -210 -158 87 -87 155 -61 vhcurveto
          hintmask 1110101000000000
          -178 -28 -109 -99 -145 vvcurveto
          -226 194 -89 292 -70 vhcurveto
          313 -82 75 -82 -153 vvcurveto
          -168 -142 -122 -253 vhcurveto
          hintmask 1111001000000000
          -200 -231 88 291 hvcurveto
          -54 -2 rlineto
          -324 246 -107 239 272 178 128 218 vhcurveto
          hintmask 1110011000000000
          166 -93 84 -167 63 vhcurveto
          hintmask 1110100010000000
          -615 389 rmoveto
          130 96 104 211 9 vhcurveto
          33 -10 37 -10 38 -10 rrcurveto
          345 -95 105 -78 -165 vvcurveto
          -126 -125 -104 -222 -2 vhcurveto
          -22 6 -23 7 -24 6 rrcurveto
          -361 102 -88 62 174 vvcurveto
          endchar
        </CharString>
        <CharString name="semicolon">
          -712 956 -8 callsubr
          125 111 -67 54 hintmask 00000000
          hintmask 11000000
          180 1067 rmoveto
          -107 callsubr
          hintmask 10100000
          43 -1040 rmoveto
          132 -54 -134 -72 callsubr
        </CharString>
        <CharString name="seven">
          45 21 -21 23 callgsubr
          54 hstem
          77 930 vstem
          1007 1422 rmoveto
          34 -930 -54 868 vlineto
          -634 -1402 rlineto
          55 hlineto
          endchar
        </CharString>
        <CharString name="seven.frac">
          1403 -20 callgsubr
          1421 -68 callgsubr
        </CharString>
        <CharString name="seven.smcp">
          -66 21 -21 1110 55 hstem
          69 839 vstem
          908 1130 rmoveto
          35 -839 -55 778 vlineto
          -570 -1110 rlineto
          56 hlineto
          endchar
        </CharString>
        <CharString name="seven.sup">
          21 -21 739 -20 callgsubr
          757 -68 callgsubr
        </CharString>
        <CharString name="seven.tnum">
          -6 endchar
        </CharString>
        <CharString name="six">
          18 callgsubr
          128 54 777 54 vstem
          592 -89 callgsubr
        </CharString>
        <CharString name="six.frac">
          653 -67 callgsubr
          1183 -102 callgsubr
        </CharString>
        <CharString name="six.smcp">
          -66 -16 53 673 55 359 54 hstem
          132 54 673 54 vstem
          534 765 rmoveto
          -157 -127 -73 -96 -63 hvcurveto
          360 18 242 168 292 hhcurveto
          17 54 -17 hlineto
          -339 -268 -208 -446 hvcurveto
          -126 vlineto
          -247 174 -167 235 220 152 174 225 215 -137 167 -242 vhcurveto
          7 -728 rmoveto
          -207 -148 141 220 hvcurveto
          96 vlineto
          124 35 149 92 156 hhcurveto
          224 109 -146 -182 -184 -123 -161 -195 hvcurveto
          endchar
        </CharString>
        <CharString name="six.sup">
          -11 -67 callgsubr
          519 -102 callgsubr
        </CharString>
        <CharString name="six.tnum">
          18 callgsubr
          121 54 777 54 vstem
          585 -89 callgsubr
        </CharString>
        <CharString name="slash">
          -294 -39 callsubr
          hstem
          42 667 vstem
          101 -125 rmoveto
          608 1581 rlineto
          -59 hlineto
          -608 -1581 rlineto
          endchar
        </CharString>
        <CharString name="space">
          -586 endchar
        </CharString>
        <CharString name="st">
          553 -21 54 -53 54 993 55 -34 54 329 53 hstemhm
          108 54 -19 54 516 53 73 54 325 55 hintmask 0000000000000000
          hintmask 1010101111000000
          1543 42 rmoveto
          -5 -37 -29 -4 -41 hhcurveto
          -87 -76 56 190 hvcurveto
          748 246 55 -246 62 vlineto
          181 -67 159 -233 -140 -120 -92 -166 vhcurveto
          hintmask 0101101111000000
          -66 16 -56 27 -64 vhcurveto
          40 -64 -85 22 -102 hhcurveto
          -5 callgsubr
          hvcurveto
          -11 callsubr
          hintmask 0110110111000000
          -53 callgsubr
          hintmask 0101101111000000
          -34 callgsubr
          181 -126 45 207 vvcurveto
          127 82 78 124 179 67 -115 -172 vhcurveto
          hintmask 1010101111000000
          -62 39 callsubr
          -748 vlineto
          -217 83 -83 138 36 41 1 13 37 vhcurveto
          endchar
        </CharString>
        <CharString name="sterling">
          74 0 54 613 54 701 54 hstemhm
          295 54 -38 54 616 54 hintmask 11110100
          219 54 rmoveto
          -120 -54 962 hlineto
          -1 54 rlineto
          hintmask 11101100
          -757 hlineto
          48 58 22 94 -3 130 -10 331 rcurveline
          368 54 hlineto
          hintmask 11110100
          -370 hlineto
          -9 318 rlineto
          248 120 135 192 175 145 -97 -236 -33 callgsubr
          228 -133 159 -241 -222 -144 -161 -276 vhcurveto
          9 -318 rlineto
          -209 -54 hlineto
          hintmask 11101100
          211 hlineto
          10 -331 rlineto
          hintmask 11110100
          3 -120 -28 -141 -72 -21 rrcurveto
          endchar
        </CharString>
        <CharString name="sterling.smcp">
          -90 0 54 513 54 506 54 hstemhm
          245 54 -51.5 54 -47.5 54 533 54 hintmask 00000000
          hintmask 11100110
          89 54 rmoveto
          -10 -54 852 hlineto
          -1 54 rlineto
          -742 hlineto
          103 92 25 160 -6 160 -4 101 rcurveline
          422 54 hlineto
          hintmask 11110010
          -424 hlineto
          -5 123 rlineto
          251 -10 95 132 192 hhcurveto
          175 90 -88 -245 hvcurveto
          54 hlineto
          231 -75 156 -244 -222 -120 -165 -272 11 vhcurveto
          hintmask 11101010
          5 -123 rlineto
          -215 -54 hlineto
          hintmask 11100110
          217 hlineto
          4 -101 6 -145 -42 -225 -131 -42 rlinecurve
          endchar
        </CharString>
        <CharString name="t">
          -428 -20 54 993 55 hstem
          238 55 vstem
          563 -24 callsubr
          292 -55 -292 39 callsubr
          -768 vlineto
          -1 callsubr
        </CharString>
        <CharString name="thorn">
          -41 callsubr
          647 -54 -1952 -84 callsubr
        </CharString>
        <CharString name="three">
          45 -20 54 680 56 652 54 hstemhm
          103 54 -23 54 733 54 -22 54 hintmask 11110010
          703 745 rmoveto
          hintmask 11101100
          169 53 103 130 153 vvcurveto
          245 -161 150 -250 -234 -196 -153 -249 -33 callgsubr
          216 166 132 210 248 109 -154 -183 -168 -138 -147 -255 vhcurveto
          -111 -56 111 hlineto
          hintmask 11110010
          248 177 -94 -238 -217 -138 -131 -242 -237 -179 155 216 hvcurveto
          -54 hlineto
          -294 251 -131 219 251 183 148 258 191 -113 124 -191 44 vhcurveto
          endchar
        </CharString>
        <CharString name="three.smcp">
          -66 -16 53 529 55 505 55 hstemhm
          92 54 -27 54 650 54 -25 54 hintmask 11110010
          639 596 rmoveto
          hintmask 11101100
          149 44 89 105 117 vvcurveto
          200 -144 119 -226 -212 -176 -126 -196 -33 callgsubr
          166 147 101 187 220 96 -116 -144 -132 -122 -113 -227 vhcurveto
          -101 -55 101 hlineto
          hintmask 11110010
          222 156 -75 -184 -169 -123 -101 -214 -211 -158 118 167 hvcurveto
          -54 hlineto
          -232 224 -106 199 226 165 118 208 147 -98 101 -169 38 vhcurveto
          endchar
        </CharString>
        <CharString name="three.sup">
          -11 -61 callsubr
          404 -97 callsubr
        </CharString>
        <CharString name="three.tnum">
          48 endchar
        </CharString>
        <CharString name="tilde">
          -259 8 callgsubr
          90 -17 callgsubr
          hintmask 00000000
          hintmask 10011100
          729 -75 callsubr
        </CharString>
        <CharString name="tildecomb">
          -1076 8 callgsubr
          -823 -17 callgsubr
          hintmask 00000000
          hintmask 10011100
          -184 -75 callsubr
        </CharString>
        <CharString name="two">
          45 0 54 1368 54 hstem
          117 54 720 55 vstem
          1024 hmoveto
          54 -800 vlineto
          422 492 rlineto
          148 173 152 186 180 vvcurveto
          255 -160 136 -250 -248 -171 -195 -236 -33 callgsubr
          216 156 161 209 233 122 -131 -206 -129 -80 -143 -181 -209 vhcurveto
          -477 -550 rlineto
          15 callgsubr
        </CharString>
        <CharString name="two.smcp">
          -66 0 54 1072 55 hstem
          103 54 641 55 vstem
          923 hmoveto
          54 -717 vlineto
          379 386 rlineto
          133 137 135 146 143 vvcurveto
          202 -148 113 -213 -241 -148 -158 -189 -33 callgsubr
          168 117 124 218 204 102 -100 -160 -102 -70 -109 -163 -165 vhcurveto
          -429 -439 rlineto
          -51 vlineto
          endchar
        </CharString>
        <CharString name="two.sup">
          0 -32 callsubr
          hmoveto
          -91 callsubr
        </CharString>
        <CharString name="two.tnum">
          78 endchar
        </CharString>
        <CharString name="u">
          -58 callgsubr
          897 1082 -96 callsubr
          hintmask 01110000
          -29 callsubr
        </CharString>
        <CharString name="uacute">
          -58 callgsubr
          789 24 callgsubr
          -80 callsubr
          303 -188 -96 callsubr
          hintmask 01110000
          -29 callsubr
        </CharString>
        <CharString name="ucircumflex">
          -58 callgsubr
          579 1460 -92 callgsubr
          503 -182 -96 callsubr
          hintmask 01110000
          -29 callsubr
        </CharString>
        <CharString name="udieresis">
          45 -26 callsubr
          1366 -8 callsubr
          31 callsubr
          82 -73 callsubr
          37 55 hintmask 10111110
          359 1366 -101 callsubr
          93 -284 -96 callsubr
          hintmask 01111110
          -29 callsubr
        </CharString>
        <CharString name="ugrave">
          -58 callgsubr
          634 1270 -97 callgsubr
          322 -188 -96 callsubr
          hintmask 01110000
          -29 callsubr
        </CharString>
        <CharString name="underscore">
          -231 -54 54 hstem
          -1 846 vstem
          845 -54 rmoveto
          54 -846 15 callgsubr
        </CharString>
        <CharString name="uni00AD">
          -476 -22 callsubr
        </CharString>
        <CharString name="uni00B2">
          664 -32 callsubr
          664 rmoveto
          -91 callsubr
        </CharString>
        <CharString name="uni00B3">
          653 -61 callsubr
          1068 -97 callsubr
        </CharString>
        <CharString name="uni00B9">
          664 791 10 callgsubr
          664 rmoveto
          -53 callsubr
        </CharString>
        <CharString name="uni05B0">
          27 callgsubr
          hstem
          507 -8 callgsubr
          562 -291 rmoveto
          -93 callgsubr
          -190 vmoveto
          -93 callgsubr
          endchar
        </CharString>
        <CharString name="uni05B1">
          2 callgsubr
          -81 111 49 -8 callsubr
          327 35 callsubr
          69 111 hintmask 01110110
          382 -291 rmoveto
          -93 callgsubr
          180 -93 callsubr
          180 -93 callsubr
          hintmask 01101010
          -270 -160 rmoveto
          -93 callgsubr
          hintmask 10110110
          270 -30 rmoveto
          -93 callgsubr
          endchar
        </CharString>
        <CharString name="uni05B2">
          8 callsubr
          669 111 hintmask 00000000
          hintmask 01010000
          724 -291 rmoveto
          -93 callgsubr
          hintmask 10110000
          -378 28 rmoveto
          266 56 -266 hlineto
          378 -274 rmoveto
          -93 callgsubr
          endchar
        </CharString>
        <CharString name="uni05B3">
          8 callsubr
          429 111 130 111 hintmask 00000000
          hintmask 01011000
          725 -291 rmoveto
          -93 callgsubr
          -241 -160 rmoveto
          31 25 24 31 hvcurveto
          hintmask 00111000
          39 callgsubr
          vhcurveto
          109 56 -271 -56 116 hlineto
          -4 -93 -28 2 -42 vvcurveto
          hintmask 01011000
          -87 callgsubr
          vhcurveto
          hintmask 10111000
          241 -30 rmoveto
          -93 callgsubr
          endchar
        </CharString>
        <CharString name="uni05B4">
          -1076 -291 -35 callsubr
          507 -8 callgsubr
          562 -59 callgsubr
          endchar
        </CharString>
        <CharString name="uni05B5">
          -1076 -291 -35 callsubr
          417 111 69 -8 callgsubr
          -65 callgsubr
          endchar
        </CharString>
        <CharString name="uni05B6">
          -1076 -451 111 49 -8 callsubr
          417 35 callsubr
          hintmask 00000000
          hintmask 11101000
          -65 callgsubr
          hintmask 11010000
          -90 -160 rmoveto
          -93 callgsubr
          endchar
        </CharString>
        <CharString name="uni05B7">
          -1076 -263 56 hstem
          397 331 vstem
          397 -263 31 callgsubr
        </CharString>
        <CharString name="uni05B8">
          -1076 -263 56 hstem
          511 -8 callgsubr
          566 -451 rmoveto
          31 25 24 31 39 callgsubr
          hvcurveto
          139 56 -331 -56 6 callgsubr
          vhcurveto
          endchar
        </CharString>
        <CharString name="uni05B9">
          -20 callsubr
          164 -8 callgsubr
          219 -83 callgsubr
          endchar
        </CharString>
        <CharString name="uni05BA">
          -20 callsubr
          164 -8 callgsubr
          219 -83 callgsubr
          endchar
        </CharString>
        <CharString name="uni05BB">
          -1076 -571 111 29 111 29 -8 callsubr
          508 111 -1 111 -1 111 hintmask 10110100
          563 -59 callgsubr
          hintmask 11101000
          110 -140 rmoveto
          -47 callsubr
          hintmask 10110100
          110 -140 rmoveto
          -47 callsubr
          endchar
        </CharString>
        <CharString name="uni05BC">
          -1076 539 -35 callsubr
          244 -8 callgsubr
          299 539 rmoveto
          -47 callsubr
          endchar
        </CharString>
        <CharString name="uni05BE">
          -633 -34 callsubr
          hstem
          60 323 vstem
          383 33 callsubr
          55 -323 -55 vlineto
          endchar
        </CharString>
        <CharString name="uni05BF">
          -1076 1347 56 hstem
          260 391 vstem
          260 -14 callgsubr
          endchar
        </CharString>
        <CharString name="uni05C1">
          -20 callsubr
          1179 -8 callgsubr
          1234 -83 callgsubr
          endchar
        </CharString>
        <CharString name="uni05C2">
          -20 callsubr
          136 -8 callgsubr
          191 -83 callgsubr
          endchar
        </CharString>
        <CharString name="uni05D0">
          152 21 30 callsubr
          vstem
          1113 hmoveto
          -398 526 -94 callsubr
          endchar
        </CharString>
        <CharString name="uni05D1">
          -51 3 callsubr
          hstem
          771 59 vstem
          830 61 -82 callsubr
          endchar
        </CharString>
        <CharString name="uni05D2">
          -85 callgsubr
        </CharString>
        <CharString name="uni05D2.001">
          -85 callgsubr
        </CharString>
        <CharString name="uni05D3">
          -101 -79 callgsubr
          672 -17 callsubr
          endchar
        </CharString>
        <CharString name="uni05D4">
          82 -79 callgsubr
          176 59 684 -48 callsubr
          -743 -704 -30 callsubr
        </CharString>
        <CharString name="uni05D5">
          -558 29 callgsubr
          vstem
          269 hmoveto
          9 callgsubr
        </CharString>
        <CharString name="uni05D6">
          -423 -79 callgsubr
          84 479 -33 callsubr
          endchar
        </CharString>
        <CharString name="uni05D7">
          113 -79 callgsubr
          190.5 59 700.5 59 vstem
          190 hmoveto
          59 hlineto
          1 1102 rlineto
          310 -81 callsubr
          -366 hlineto
          endchar
        </CharString>
        <CharString name="uni05D8">
          121 -20 56 1073 56 -8 -20 hstemhm
          190 59 719 59 hintmask 11011000
          -79 callsubr
          hintmask 10111000
          737 -59 -747 vlineto
          hintmask 11011000
          28 callsubr
          endchar
        </CharString>
        <CharString name="uni05D9">
          -534 -34 callsubr
          hstem
          303 59 vstem
          303 526 -70 callgsubr
          endchar
        </CharString>
        <CharString name="uni05DA">
          -132 -34 callsubr
          hstem
          705 -12 callgsubr
          endchar
        </CharString>
        <CharString name="uni05DB">
          -12 -14 57 1059 55 hstem
          815 59 vstem
          415 -14 -88 callsubr
          endchar
        </CharString>
        <CharString name="uni05DC">
          -64 -79 callgsubr
          100 59 -43 callgsubr
          endchar
        </CharString>
        <CharString name="uni05DD">
          153 3 callsubr
          hstem
          180 59 741 59 vstem
          180 hmoveto
          859 -49 callsubr
          -859 hlineto
          59 -1102 rmoveto
          1047 741 -1047 vlineto
          endchar
        </CharString>
        <CharString name="uni05DE">
          153 0 55 1057 58 hstem
          1000 -85 callsubr
          endchar
        </CharString>
        <CharString name="uni05DF">
          -558 -34 callsubr
          hstem
          269 59 vstem
          269 -416 rmoveto
          59 1573 -228 -55 169 hlineto
          endchar
        </CharString>
        <CharString name="uni05E0">
          -420 -20 56 -19 -21 1106 55 hstemhm
          407 59 hintmask 10110000
          -48 callgsubr
          hintmask 01110000
          -9 -55 rlineto
          hintmask 10110000
          -9 38 56 -7 59 hhcurveto
          endchar
        </CharString>
        <CharString name="uni05E1">
          153 -20 57 1075 58 33 callgsubr
          59 800 -92 callsubr
          endchar
        </CharString>
        <CharString name="uni05E2">
          12 -20 52 1125 -20 hstem
          839 59 vstem
          839 -49 callgsubr
          -724 vlineto
          -241 -144 -139 -212 -19 vhcurveto
          -32 61 -20 63 -24 106 14 callgsubr
          22 -99 19 -55 37 -68 rlinecurve
          -98 1 -113 24 -123 49 -24 -49 rcurveline
          19 callgsubr
          193 160 293 hvcurveto
          724 vlineto
          endchar
        </CharString>
        <CharString name="uni05E3">
          29 456 57 589 55 hstem
          179 59 618 -76 callgsubr
          endchar
        </CharString>
        <CharString name="uni05E4">
          20 callgsubr
          539 55 hstem
          169 59 688 59 vstem
          514 -14 -96 callgsubr
          endchar
        </CharString>
        <CharString name="uni05E5">
          -69 -49 callsubr
          -20 hstem
          581 59 vstem
          574 559 rmoveto
          374 598 rlineto
          -69 hlineto
          -341 -546 -379 546 rlineto
          -70 hlineto
          470 -680 rlineto
          16 -24 6 -40 -64 vvcurveto
          -765 59 765 vlineto
          78 -11 52 -23 34 vhcurveto
          endchar
        </CharString>
        <CharString name="uni05E6">
          -43 0 55 1102 -20 hstem
          89 859 -55 callgsubr
          endchar
        </CharString>
        <CharString name="uni05E7">
          91 0 56 1046 55 hstem
          197 59 662 -77 callgsubr
          endchar
        </CharString>
        <CharString name="uni05E8">
          -94 callgsubr
        </CharString>
        <CharString name="uni05E8.001">
          -94 callgsubr
        </CharString>
        <CharString name="uni05E8.002">
          -94 callgsubr
        </CharString>
        <CharString name="uni05E8.003">
          -94 callgsubr
        </CharString>
        <CharString name="uni05E8.004">
          -94 callgsubr
        </CharString>
        <CharString name="uni05E9">
          388 -20 56 1121 -20 hstem
          20 callsubr
          456 59 vstem
          249 1157 -78 callgsubr
          -103 callgsubr
          endchar
        </CharString>
        <CharString name="uni05EA">
          156 26 callsubr
          680 59 vstem
          600 -49 callgsubr
          -489 -88 callgsubr
          180 -81 callsubr
          endchar
        </CharString>
        <CharString name="uni05F0">
          -40 29 callgsubr
          459 59 vstem
          269 hmoveto
          -64 callsubr
          518 -1102 7 callsubr
        </CharString>
        <CharString name="uni05F1">
          -16 29 callgsubr
          493 59 vstem
          269 hmoveto
          -64 callsubr
          552 -576 -70 callgsubr
          endchar
        </CharString>
        <CharString name="uni05F2">
          8 -34 callsubr
          hstem
          303 59 483 59 vstem
          303 526 -70 callgsubr
          542 -576 -70 callgsubr
          endchar
        </CharString>
        <CharString name="uni05F3">
          -853 936 464 hstem
          94 59 vstem
          47 936 -60 callsubr
          endchar
        </CharString>
        <CharString name="uni05F4">
          -663 936 464 hstem
          94 59 121 59 vstem
          47 936 -60 callsubr
          217 -32 -60 callsubr
          endchar
        </CharString>
        <CharString name="uni1E9E">
          249 -26 callsubr
          775 54 593 54 hstemhm
          200 53 899 54 hintmask 10111100
          730 829 rmoveto
          -70 hlineto
          401 405 rlineto
          147 -111 -139 95 -198 hhcurveto
          -326 -87 -192 -286 hvcurveto
          hintmask 01111100
          -998 53 996 vlineto
          304 106 122 254 152 132 -73 -113 82 vhcurveto
          -400 -403 rlineto
          -58 151 vlineto
          309 113 -154 -213 hvcurveto
          hintmask 10111100
          -256 -161 -118 -241 -96 -85 27 26 -55 vhcurveto
          -32 -58 rlineto
          -35 94 81 -14 93 hhcurveto
          288 168 155 273 249 -150 172 -326 hvcurveto
          endchar
        </CharString>
        <CharString name="uni1E9E.smcp">
          -12 -26 callsubr
          605 52 474 50 hstemhm
          170 53 712 54 hintmask 10111100
          562 657 rmoveto
          -1 hlineto
          326 333 rlineto
          124 -94 -108 67 -156 hhcurveto
          -274 -85 -172 -256 hvcurveto
          hintmask 01111100
          -753 53 751 vlineto
          268 95 112 211 125 105 -60 -83 60 vhcurveto
          -320 -331 rlineto
          -52 63 vlineto
          273 100 -112 -155 hvcurveto
          hintmask 10111100
          -208 -138 -96 -205 -84 -76 27 26 -48 vhcurveto
          -26 -49 rlineto
          -39 68 83 -19 83 hhcurveto
          250 147 130 228 190 -135 129 -292 hvcurveto
          endchar
        </CharString>
        <CharString name="uni200C">
          -1076 -200 1475 hstem
          -589 54 vstem
          -589 1275 rmoveto
          -1475 54 1475 vlineto
          endchar
        </CharString>
        <CharString name="uni200D">
          -1076 -200 1678 hstem
          -589 54 vstem
          -317 1440 rmoveto
          -38 38 -207 -207 -207 207 -38 -38 207 -207 -207 -208 38 -38 180 180 rlineto
          -1367 54 1367 vlineto
          180 -180 38 38 -207 208 rlineto
          endchar
        </CharString>
        <CharString name="uni200E">
          16 callgsubr
          -716 54 vstem
          -420 1471 rmoveto
          -77 hlineto
          191 -196 rlineto
          -410 -1475 54 1421 358 hlineto
          -193 -194 rlineto
          77 hlineto
          217 218 rlineto
          endchar
        </CharString>
        <CharString name="uni200F">
          16 callgsubr
          -462 54 vstem
          -408 1275 rmoveto
          -410 hlineto
          191 196 rlineto
          -77 hlineto
          -217 -226 217 -218 rlineto
          77 hlineto
          -193 194 rlineto
          358 -1421 54 hlineto
          endchar
        </CharString>
        <CharString name="uni2070">
          653 -52 callgsubr
          991 -101 callgsubr
        </CharString>
        <CharString name="uni2074">
          868 -42 callgsubr
          917 -90 callgsubr
        </CharString>
        <CharString name="uni2075">
          653 -69 callgsubr
          1071 -100 callgsubr
        </CharString>
        <CharString name="uni2076">
          653 -67 callgsubr
          1183 -102 callgsubr
        </CharString>
        <CharString name="uni2077">
          1403 -20 callgsubr
          1421 -68 callgsubr
        </CharString>
        <CharString name="uni2078">
          653 -76 callsubr
          1068 -104 callsubr
        </CharString>
        <CharString name="uni2079">
          656 -68 callsubr
          1464 -103 callsubr
        </CharString>
        <CharString name="uni2080">
          -385 -52 callgsubr
          -47 -101 callgsubr
        </CharString>
        <CharString name="uni2081">
          -362 791 10 callgsubr
          -362 rmoveto
          -53 callsubr
        </CharString>
        <CharString name="uni2082">
          -362 -32 callsubr
          -362 rmoveto
          -91 callsubr
        </CharString>
        <CharString name="uni2083">
          -373 -61 callsubr
          42 -97 callsubr
        </CharString>
        <CharString name="uni2084">
          -158 -42 callgsubr
          -109 -90 callgsubr
        </CharString>
        <CharString name="uni2085">
          -373 -69 callgsubr
          45 -100 callgsubr
        </CharString>
        <CharString name="uni2086">
          -373 -67 callgsubr
          157 -102 callgsubr
        </CharString>
        <CharString name="uni2087">
          377 -20 callgsubr
          395 -68 callgsubr
        </CharString>
        <CharString name="uni2088">
          -373 -76 callsubr
          42 -104 callsubr
        </CharString>
        <CharString name="uni2089">
          -370 -68 callsubr
          438 -103 callsubr
        </CharString>
        <CharString name="uni20AA">
          437 3 callsubr
          hstem
          170 59 306 59 305 59 306 59 vstem
          170 hmoveto
          59 1102 670 -637 hlineto
          -120 -8 -66 -24 -70 vhcurveto
          4 -4 53 8 rlineto
          26 76 8 55 111 vvcurveto
          702 -788 vlineto
          365 -1157 rmoveto
          372 hlineto
          250 166 167 250 hvcurveto
          740 -59 -740 vlineto
          -217 -140 -145 -211 vhcurveto
          -319 834 -59 hlineto
          endchar
        </CharString>
        <CharString name="uniFB1F">
          8 -263 56 1309 55 hstem
          303 59 483 59 vstem
          303 526 -70 callgsubr
          542 -576 -70 callgsubr
          -668 -1365 31 callgsubr
        </CharString>
        <CharString name="uniFB20">
          47 -37 52 1142 -20 hstem
          70 863 vstem
          878 -49 callgsubr
          -39 -741 -13 -234 -125 -138 -200 -25 rlinecurve
          -36 66 -22 65 -26 114 14 callgsubr
          25 -109 20 -55 42 -75 rlinecurve
          -15 hlineto
          -99 -114 24 50 -125 hvcurveto
          -24 -49 rlineto
          19 callgsubr
          174 160 293 15 hvcurveto
          39 741 rlineto
          endchar
        </CharString>
        <CharString name="uniFB21">
          639 21 -14 callsubr
          226 59 vstem
          1600 -49 callgsubr
          -69 hlineto
          -454 -725 -822 725 rlineto
          -85 hlineto
          202 -179 rlineto
          -90 -87 -56 -134 -168 vvcurveto
          -589 59 579 vlineto
          167 47 119 79 78 vhcurveto
          1065 -943 rlineto
          91 hlineto
          -445 393 rlineto
          endchar
        </CharString>
        <CharString name="uniFB22">
          179 -79 callgsubr
          918 59 vstem
          60 -49 callgsubr
          -55 858 -1102 59 1093 vlineto
          218 16 rlineto
          48 vlineto
          endchar
        </CharString>
        <CharString name="uniFB23">
          549 -79 callgsubr
          173 59 1154 59 vstem
          1386 hmoveto
          59 839 hlineto
          200 -118 118 -199 vhcurveto
          -958 -55 971 hlineto
          147 98 -101 -151 hvcurveto
          -1213 -850 rmoveto
          59 383 hlineto
          120 8 66 24 70 vhcurveto
          -4 4 -53 -8 rlineto
          -26 -76 -8 -55 -111 vvcurveto
          endchar
        </CharString>
        <CharString name="uniFB24">
          497 -29 56 1075 55 hstem
          1324 59 vstem
          713 -29 rmoveto
          442 228 150 296 hvcurveto
          740 -1255 -55 1196 -685 35 callgsubr
          -208 -131 -405 -166 -198 22 44 -230 vhcurveto
          -11 -55 rlineto
          -45 234 202 -22 171 hhcurveto
          endchar
        </CharString>
        <CharString name="uniFB25">
          321 -79 callgsubr
          100 59 vstem
          1297 -49 callgsubr
          -1138 379 -59 -434 1116 hlineto
          -639 -1102 rlineto
          67 hlineto
          653 1122 rlineto
          endchar
        </CharString>
        <CharString name="uniFB26">
          733 3 callsubr
          hstem
          150 59 1371 59 vstem
          150 hmoveto
          1489 -49 callsubr
          -1489 hlineto
          59 -1102 rmoveto
          1047 1371 -1047 vlineto
          endchar
        </CharString>
        <CharString name="uniFB27">
          388 -79 callgsubr
          1225 59 vstem
          1225 hmoveto
          59 839 hlineto
          200 -118 118 -199 vhcurveto
          -908 -55 921 hlineto
          147 98 -101 -151 hvcurveto
          endchar
        </CharString>
        <CharString name="uniFB28">
          613 26 callsubr
          1137 59 vstem
          1057 -49 callgsubr
          -946 -88 callgsubr
          637 -81 callsubr
          endchar
        </CharString>
        <CharString name="uniFB29">
          25 callsubr
          535 1206 rmoveto
          -504 -462 -53 998 53 -481 504 vlineto
          endchar
        </CharString>
        <CharString name="uniFB2A">
          388 -20 56 1121 -20 172 -8 callsubr
          20 callsubr
          430 111 -85 59 hintmask 00000000
          hintmask 11111100
          1244 -83 callgsubr
          -995 -6 callgsubr
          hintmask 11111010
          -103 callgsubr
          endchar
        </CharString>
        <CharString name="uniFB2B">
          388 -20 56 1121 -20 172 -8 callsubr
          152 111 -73 11 callsubr
          456 59 hintmask 00000000
          hintmask 11110110
          207 -83 callgsubr
          hintmask 11101110
          42 -6 callgsubr
          -103 callgsubr
          endchar
        </CharString>
        <CharString name="uniFB2C">
          -21 callsubr
          172 -8 callsubr
          20 callsubr
          172 111 147 111 -85 59 hintmask 0000000000000000
          hintmask 1111110100000000
          1244 -83 callgsubr
          -995 -6 callgsubr
          hintmask 1111111010000000
          -103 callgsubr
          396 289 rmoveto
          -47 callsubr
          endchar
        </CharString>
        <CharString name="uniFB2D">
          -21 callsubr
          172 -8 callsubr
          152 111 -73 11 callsubr
          172 111 173 59 hintmask 0000000000000000
          hintmask 1111101010000000
          207 -83 callgsubr
          hintmask 1111011110000000
          42 -6 callgsubr
          -103 callgsubr
          396 289 rmoveto
          -47 callsubr
          endchar
        </CharString>
        <CharString name="uniFB2E">
          -7 callsubr
          vstem
          715 526 rmoveto
          -94 callsubr
          68 hlineto
          -639 -263 31 callgsubr
        </CharString>
        <CharString name="uniFB2F">
          -7 callsubr
          323 -8 callgsubr
          715 526 rmoveto
          -94 callsubr
          68 hlineto
          -639 -263 rmoveto
          6 callgsubr
          31 25 24 31 39 callgsubr
          vhcurveto
          139 10 callsubr
        </CharString>
        <CharString name="uniFB30">
          152 21 -21 225 111 821 -20 hstem
          206 59 195 -8 callgsubr
          715 526 rmoveto
          -94 callsubr
          68 hlineto
          -598 336 rmoveto
          -100 callsubr
          -87 callgsubr
          31 25 24 31 31 -25 25 -31 hvcurveto
          endchar
        </CharString>
        <CharString name="uniFB31">
          -51 0 55 493 2 callsubr
          359 111 301 59 vstem
          830 61 -82 callsubr
          -505 553 -55 callsubr
        </CharString>
        <CharString name="uniFB32">
          -3 61 -37 -21 548 -51 callsubr
          hstemhm
          165 111 160 59 hintmask 10010100
          33 -3 rmoveto
          228 181 181 178 18 hvcurveto
          9 hlineto
          hintmask 01010100
          66 -356 rlineto
          63 hlineto
          -85 381 rlineto
          -11 49 -7 66 51 vvcurveto
          610 -329 -55 270 -642 vlineto
          hintmask 10010100
          -14 -206 -140 -185 -244 -11 -7 -1 -8 0 -8 1 rrcurveto
          -60 vlineto
          -1 6 6 0 6 hhcurveto
          hintmask 10111100
          187 551 rmoveto
          -47 callsubr
          endchar
        </CharString>
        <CharString name="uniFB33">
          -101 -50 callsubr
          298 111 263 -17 callsubr
          -562 -609 rmoveto
          -47 callsubr
          endchar
        </CharString>
        <CharString name="uniFB34">
          82 -50 callsubr
          176 59 287 111 286 -48 callsubr
          -342 -156 rmoveto
          -47 callsubr
          -401 -548 -30 callsubr
        </CharString>
        <CharString name="uniFB35">
          -558 -50 callsubr
          45 111 113 59 vstem
          269 hmoveto
          -64 callsubr
          -169 -554 rmoveto
          -47 callsubr
          endchar
        </CharString>
        <CharString name="uniFB36">
          -423 -50 callsubr
          430 111 -33 callsubr
          303 -548 rmoveto
          -47 callsubr
          endchar
        </CharString>
        <CharString name="uniFB38">
          121 -20 56 512 111 450 56 -8 -20 hstemhm
          190 59 317 111 291 59 hintmask 10101010
          -79 callsubr
          hintmask 10011010
          737 -59 -747 vlineto
          hintmask 10101010
          28 callsubr
          hintmask 11101110
          12 568 rmoveto
          -47 callsubr
          endchar
        </CharString>
        <CharString name="uniFB39">
          -534 798 111 193 55 hstem
          72 111 120 59 vstem
          303 526 -70 callgsubr
          -176 -304 rmoveto
          -47 callsubr
          endchar
        </CharString>
        <CharString name="uniFB3A">
          -132 548 2 callsubr
          294 111 300 -12 callgsubr
          -356 -554 rmoveto
          -47 callsubr
          endchar
        </CharString>
        <CharString name="uniFB3B">
          -12 -14 57 505 2 callsubr
          384 111 320 59 vstem
          415 -14 -88 callsubr
          24 562 rmoveto
          -47 callsubr
          endchar
        </CharString>
        <CharString name="uniFB3C">
          -64 21 -21 664 111 327 55 hstem
          100 59 138 111 -43 callgsubr
          -504 -403 -55 callsubr
        </CharString>
        <CharString name="uniFB3E">
          153 0 55 493 111 453 58 hstem
          596 111 293 -85 callsubr
          370 -274 rmoveto
          -47 callsubr
          endchar
        </CharString>
        <CharString name="uniFB40">
          -420 -20 56 -19 -21 552 -51 callsubr
          hstemhm
          134 111 162 59 hintmask 10010100
          -48 callgsubr
          hintmask 01010100
          -9 -55 rlineto
          hintmask 10010100
          -9 38 56 -7 59 hhcurveto
          hintmask 10111100
          -24 568 rmoveto
          -47 callsubr
          endchar
        </CharString>
        <CharString name="uniFB41">
          153 -20 57 511 111 453 58 33 callgsubr
          59 345 111 344 -92 callsubr
          511 vmoveto
          -47 callsubr
          endchar
        </CharString>
        <CharString name="uniFB43">
          29 456 57 205 111 273 55 hstem
          179 59 271 111 236 -76 callgsubr
          -351 1134 rmoveto
          -47 callsubr
          endchar
        </CharString>
        <CharString name="uniFB44">
          20 callgsubr
          183 111 245 55 hstem
          169 59 296 111 281 59 vstem
          514 -14 -96 callgsubr
          65 760 rmoveto
          -47 callsubr
          endchar
        </CharString>
        <CharString name="uniFB46">
          -43 0 55 189 111 802 -20 hstem
          305 111 -55 callgsubr
          -158 -259 -55 callsubr
        </CharString>
        <CharString name="uniFB47">
          91 0 56 492 2 callsubr
          197 59 276 111 275 -77 callgsubr
          390 85 rmoveto
          -47 callsubr
          endchar
        </CharString>
        <CharString name="uniFB48">
          -102 -50 callsubr
          317 111 307 59 vstem
          735 hmoveto
          59 839 hlineto
          200 -118 118 -199 vhcurveto
          -418 -55 431 hlineto
          147 98 -101 -151 hvcurveto
          -363 -302 rmoveto
          -47 callsubr
          endchar
        </CharString>
        <CharString name="uniFB49">
          -21 callsubr
          hstem
          20 callsubr
          172 111 173 59 vstem
          249 1157 -78 callgsubr
          -103 callgsubr
          396 289 rmoveto
          -47 callsubr
          endchar
        </CharString>
        <CharString name="uniFB4A">
          156 -2 55 495 2 callsubr
          254 59 286 111 283 59 vstem
          600 -49 callgsubr
          -489 -88 callgsubr
          180 -81 callsubr
          54 -609 rmoveto
          -47 callsubr
          endchar
        </CharString>
        <CharString name="uniFB4B">
          -558 21 -21 -34 callsubr
          152 -8 callsubr
          157 111 1 59 hintmask 00000000
          hintmask 11110000
          212 -83 callgsubr
          hintmask 11101000
          57 -1309 7 callsubr
        </CharString>
        <CharString name="uniFB4C">
          -51 3 callsubr
          190 56 hstem
          771 59 vstem
          653 1403 rmoveto
          -391 -56 391 hlineto
          177 -1286 -82 callsubr
          endchar
        </CharString>
        <CharString name="uniFB4D">
          -12 -14 57 1059 55 190 56 hstem
          815 59 vstem
          276 -14 callgsubr
          139 -1417 -88 callsubr
          endchar
        </CharString>
        <CharString name="uniFB4E">
          20 callgsubr
          539 55 190 56 hstem
          169 59 688 59 vstem
          387 -14 callgsubr
          127 -1417 -96 callgsubr
          endchar
        </CharString>
        <CharString name="uniFB4F">
          46 21 -14 callsubr
          100 59 vstem
          1007 -49 callgsubr
          -69 hlineto
          -371 -594 -408 555 rlineto
          418 -59 -428 vlineto
          818 -1108 rlineto
          63 hlineto
          -377 513 rlineto
          endchar
        </CharString>
        <CharString name="v">
          -98 21 -21 hstem
          43 894 vstem
          879 1082 rmoveto
          -389 -995 -389 995 rlineto
          -58 hlineto
          420 -1082 rlineto
          53 hlineto
          421 1082 rlineto
          endchar
        </CharString>
        <CharString name="w">
          474 0 80 -59 -21 hstemhm
          83 1373 hintmask 01100000
          1393 1082 rmoveto
          -220 -769 rlineto
          hintmask 10100000
          -60 -233 -74 233 -242 769 rlineto
          -55 hlineto
          -243 -769 -74 -233 -59 233 -221 769 rlineto
          -62 hlineto
          314 -1082 rlineto
          54 hlineto
          263 813 55 194 51 -194 267 -813 rlineto
          54 hlineto
          315 1082 rlineto
          endchar
        </CharString>
        <CharString name="x">
          -98 21 -21 hstem
          55 867 vstem
          489 602 rmoveto
          -346 480 rlineto
          -68 hlineto
          380 -527 -400 -555 rlineto
          67 hlineto
          366 508 367 -508 rlineto
          67 hlineto
          -400 555 380 527 rlineto
          -68 hlineto
          endchar
        </CharString>
        <CharString name="y">
          29 callsubr
          884 1082 -91 callgsubr
        </CharString>
        <CharString name="yacute">
          29 callsubr
          728 24 callgsubr
          -80 callsubr
          351 -188 -91 callgsubr
        </CharString>
        <CharString name="ydieresis">
          -98 -437 53 1750 -35 callsubr
          243 -73 callsubr
          vstem
          298 1366 -101 callsubr
          141 -284 -91 callgsubr
        </CharString>
        <CharString name="yen">
          -38 21 -21 326 55 240 55 780 -20 hstem
          489 54 vstem
          1000 -31 callsubr
          -62 hlineto
          -391 -718 -26 -51 rlineto
          -9 hlineto
          -25 51 -392 718 rlineto
          -62 hlineto
          431 -780 rlineto
          -365 -55 390 -240 -390 -55 390 -326 54 326 392 55 -392 240 392 55 -367 hlineto
          endchar
        </CharString>
        <CharString name="yen.smcp">
          -144 21 -21 287 54 91 54 679 -20 hstem
          437 55 vstem
          900 -18 callsubr
          -57 hlineto
          -361 -652 -14 -27 rlineto
          -5 hlineto
          -11 26 -362 653 rlineto
          -60 hlineto
          381 -679 rlineto
          -304 -54 330 -91 -330 -54 330 -287 55 287 330 54 -330 91 330 54 -303 hlineto
          endchar
        </CharString>
        <CharString name="z">
          -98 0 54 973 55 hstem
          87 843 vstem
          160 54 rmoveto
          711 980 rlineto
          48 -753 -55 680 vlineto
          -711 -983 rlineto
          -44 843 54 vlineto
          endchar
        </CharString>
        <CharString name="zero">
          45 -20 54 1389 54 hstem
          125 54 763 54 vstem
          996 594 rmoveto
          268 vlineto
          380 -155 235 -281 -280 -155 -235 -380 vhcurveto
          -268 vlineto
          -380 158 -234 279 282 152 234 380 vhcurveto
          -54 268 rmoveto
          -266 vlineto
          -328 -122 -234 -258 -257 -126 234 328 vhcurveto
          266 vlineto
          334 124 227 257 258 124 -227 -334 vhcurveto
          endchar
        </CharString>
        <CharString name="zero.frac">
          653 -52 callgsubr
          991 -101 callgsubr
        </CharString>
        <CharString name="zero.smcp">
          -66 -16 53 1090 54 hstem
          112 54 677 54 vstem
          897 480 rmoveto
          205 vlineto
          312 -140 184 -253 -252 -140 -184 -312 vhcurveto
          -205 vlineto
          -312 143 -184 251 254 137 184 312 vhcurveto
          -54 209 rmoveto
          -211 vlineto
          -260 -108 -181 -229 -228 -112 181 260 vhcurveto
          211 vlineto
          263 110 175 228 229 110 -175 -263 vhcurveto
          endchar
        </CharString>
        <CharString name="zero.sup">
          -11 -52 callgsubr
          327 -101 callgsubr
        </CharString>
        <CharString name="zero.tnum">
          189 endchar
        </CharString>
      <CharString index="0">
        31 25 24 31 1 callgsubr
        return
      </CharString>
      <CharString index="1">
        rmoveto
        218 vlineto
        380 -215 259 -335 -334 -214 -259 -380 vhcurveto
        -19 callgsubr
        216 -259 334 335 213 259 380 vhcurveto
        -54 220 rmoveto
        -220 vlineto
        -343 -180 -242 -314 -312 -183 242 343 vhcurveto
        220 32 callgsubr
        181 242 312 314 182 -242 -341 vhcurveto
        endchar
      </CharString>
      <CharString index="2">
        rmoveto
        22 callsubr
        193 -223 282 281 191 223 317 vhcurveto
        42 vlineto
        317 -191 223 -283 -280 -193 -31 callgsubr
        vhcurveto
        54 -42 rmoveto
        18 callsubr
        265 155 -233 -253 vhcurveto
        -42 35 callgsubr
        -155 -227 -263 -266 -155 227 259 vhcurveto
        endchar
      </CharString>
      <CharString index="3">
        rmoveto
        811 63 hlineto
        275 -171 187 -240 -250 -204 -224 -316 vhcurveto
        -44 vlineto
        -314 211 -224 263 173 114 72 103 72 vhcurveto
        -38 27 rlineto
        -116 -90 -107 -33 -124 hhcurveto
        -238 -182 215 270 hvcurveto
        44 vlineto
        400 486 rmoveto
        217 140 -187 -217 hvcurveto
        -13 -753 vlineto
        235 25 153 182 218 hhcurveto
        endchar
      </CharString>
      <CharString index="4">
        314 267 141 296 hvcurveto
        740 -59 -740 vlineto
        -255 -241 -126 -285 -144 -155 33 62 -141 vhcurveto
        341 128 rmoveto
        54 -13 rlineto
        85 77 30 73 134 vvcurveto
        627 -59 -627 vlineto
        -131 -35 -86 -75 -54 vhcurveto
        return
      </CharString>
      <CharString index="5">
        rmoveto
        -101 -82 -47 -61 -43 hvcurveto
        224 12 149 112 200 hhcurveto
        12 50 -13 hlineto
        -248 -166 -151 -292 hvcurveto
        -80 vlineto
        -167 114 -118 166 154 102 118 152 144 -90 116 -166 vhcurveto
        -482 vmoveto
        -131 -96 91 146 hvcurveto
        59 vlineto
        79 26 93 58 99 hhcurveto
        143 69 -95 -117 -119 -78 -102 -125 hvcurveto
        endchar
      </CharString>
      <CharString index="6">
        rmoveto
        135 vlineto
        216 -97 122 -172 -171 -98 -122 -216 vhcurveto
        -135 vlineto
        -216 100 -122 170 173 95 122 216 vhcurveto
        -53 140 rmoveto
        -145 vlineto
        -171 -69 -114 -146 -144 -73 114 171 vhcurveto
        145 vlineto
        174 72 110 144 145 71 -110 -174 vhcurveto
        endchar
      </CharString>
      <CharString index="7">
        rmoveto
        41 -13 rlineto
        35 47 45 24 98 hhcurveto
        141 80 -81 -121 -137 -65 -77 -148 -106 -88 60 111 -11 hvcurveto
        -54 hlineto
        -148 13 124 -71 122 hhcurveto
        188 78 112 150 156 -113 94 -156 -83 -67 -26 -20 -31 hvcurveto
        37 283 rlineto
        402 51 -447 hlineto
        endchar
      </CharString>
      <CharString index="8">
        rmoveto
        -234 243 rlineto
        -40 hlineto
        -230 -239 rlineto
        -14 64 vlineto
        185 196 187 -196 rlineto
        68 hlineto
        return
      </CharString>
      <CharString index="9">
        rmoveto
        -54 -987 hlineto
        -281 -191 -154 -252 -252 -192 154 281 vhcurveto
        987 -54 -987 vlineto
        -327 214 -162 284 284 213 162 327 vhcurveto
        endchar
      </CharString>
      <CharString index="10">
        rmoveto
        -188 266 rlineto
        -66 -13 callsubr
        -266 rlineto
        return
      </CharString>
      <CharString index="11">
        rmoveto
        285 176 160 295 hvcurveto
        716 -815 -55 121 vlineto
        -67 -90 -45 -153 -140 vvcurveto
        -156 vlineto
        -46 90 63 -11 161 hhcurveto
        57 vlineto
        -143 -51 7 30 -61 hvcurveto
        115 vlineto
        147 44 155 66 85 vhcurveto
        578 -685 hlineto
        -237 -150 -134 -246 -3 vhcurveto
        -91 -1 -105 16 -114 36 -13 -51 rcurveline
        -38 116 106 -19 95 hhcurveto
        return
      </CharString>
      <CharString index="12">
        59 hlineto
        -545 -70 callsubr
        rlineto
        -66 hlineto
        -545 -54 callsubr
        rlineto
        59 hlineto
        162 435 rlineto
        714 hlineto
        -694 54 rmoveto
        return
      </CharString>
      <CharString index="13">
        -102 -79 callgsubr
        735 59 vstem
        735 hmoveto
        59 839 hlineto
        200 -118 118 -199 vhcurveto
        -418 -55 431 hlineto
        147 98 -101 -151 hvcurveto
        endchar
      </CharString>
      <CharString index="14">
        -107 callgsubr
        -31 24 -24 31 hvcurveto
        return
      </CharString>
      <CharString index="15">
        rmoveto
        187 -196 rlineto
        68 10 hlineto
        -234 243 rlineto
        -40 hlineto
        -230 -239 rlineto
        -14 64 vlineto
        return
      </CharString>
      <CharString index="16">
        rmoveto
        -374 -978 -7 -20 -401 998 rlineto
        -59 hlineto
        431 -1076 -65 -176 rlineto
        -125 -46 -59 -89 -134 hhcurveto
        -13 -40 4 5 -20 hvcurveto
        1 -51 rlineto
        -7 16 42 -4 22 hhcurveto
        198 52 166 91 35 hvcurveto
        481 1262 rlineto
        endchar
      </CharString>
      <CharString index="17">
        rmoveto
        -147 536 -60 hlineto
        -417 -553 1 -32 rlineto
        423 -204 53 204 147 hlineto
        -554 49 rmoveto
        310 403 44 71 rlineto
        -474 vlineto
        endchar
      </CharString>
      <CharString index="18">
        957 rmoveto
        -187 -149 -96 -128 -73 hvcurveto
        486 19 285 203 334 hhcurveto
        19 54 -19 hlineto
        -378 -315 -235 -581 hvcurveto
        -168 vlineto
        -315 204 -197 270 242 169 217 283 274 -153 203 -268 vhcurveto
        10 -924 rmoveto
        -246 -174 182 278 hvcurveto
        129 vlineto
        160 39 178 121 186 hhcurveto
        251 123 -187 -236 -236 -138 -211 -219 hvcurveto
        endchar
      </CharString>
      <CharString index="19">
        -55 255 hlineto
        -67 -72 -45 -151 -155 vvcurveto
        -450 vlineto
        -153 -47 -68 -139 -22 -25 2 4 -26 vhcurveto
        -55 vlineto
        -4 28 26 -2 25 hhcurveto
        161 78 86 190 hvcurveto
        450 vlineto
        158 44 151 66 69 vhcurveto
        return
      </CharString>
      <CharString index="20">
        -25 24 -30 31 return
      </CharString>
      <CharString index="21">
        rmoveto
        54 -886 -54 callsubr
        886 54 -832 668 730 54 -730 626 vlineto
        endchar
      </CharString>
      <CharString index="22">
        -3 61 -37 -21 -34 callsubr
        hstemhm
        436 59 hintmask 10110000
        33 -3 rmoveto
        228 181 181 178 18 hvcurveto
        9 hlineto
        hintmask 01110000
        66 -356 rlineto
        63 hlineto
        -85 381 rlineto
        -11 49 -7 66 51 vvcurveto
        610 -329 -55 270 -642 vlineto
        hintmask 10110000
        -14 -206 -140 -185 -244 -11 -7 -1 -8 0 -8 1 rrcurveto
        -60 vlineto
        -1 6 6 0 6 hhcurveto
        endchar
      </CharString>
      <CharString index="23">
        34 callgsubr
        13 -42 -45 4 -41 hhcurveto
        -74 callgsubr
        return
      </CharString>
      <CharString index="24">
        1309 rmoveto
        -47 callsubr
        return
      </CharString>
      <CharString index="25">
        rmoveto
        95 76 72 98 98 -76 76 -95 -96 -75 -76 -98 -98 75 -72 96 hvcurveto
        290 vmoveto
        68 49 -49 -71 -69 -49 -47 -68 -68 -49 47 69 71 49 49 68 hvcurveto
        return
      </CharString>
      <CharString index="26">
        288 -20 54 1388 54 11 callgsubr
        989 54 vstem
        return
      </CharString>
      <CharString index="27">
        rlineto
        124 -13 65 -23 -88 vvcurveto
        -99 -130 -42 -107 vhcurveto
        7 -49 rlineto
        176 109 76 114 return
      </CharString>
      <CharString index="28">
        21 -21 -34 callsubr
        hstem
        return
      </CharString>
      <CharString index="29">
        rmoveto
        -59 -1062 hlineto
        -76 160 178 -39 165 hhcurveto
        return
      </CharString>
      <CharString index="30">
        59 vstem
        542 hmoveto
        274 9 161 144 238 vvcurveto
        766 -807 -55 748 -711 vlineto
        -192 -149 -133 -227 -10 vhcurveto
        -345 -472 rmoveto
        59 869 hlineto
        115 7 65 22 67 vhcurveto
        -56 hlineto
        -24 -74 -8 -55 -108 vvcurveto
        return
      </CharString>
      <CharString index="31">
        59 vstem
        915 -49 callgsubr
        -745 -55 121 hlineto
        -67 -90 -45 -203 -140 vvcurveto
        -156 vlineto
        -46 90 63 -11 161 hhcurveto
        57 vlineto
        -143 -51 7 30 -61 hvcurveto
        115 vlineto
        147 44 205 66 85 vhcurveto
        508 -1518 59 hlineto
        return
      </CharString>
      <CharString index="32">
        5 -20 53 -12 -21 549 55 444 54 -19 callsubr
        676 54 hintmask 10111010
        return
      </CharString>
      <CharString index="33">
        -176 -107 -64 callgsubr
        -36 callgsubr
        return
      </CharString>
      <CharString index="34">
        -283 -190 232 353 hvcurveto
        220 vlineto
        351 190 232 283 276 159 -143 -267 30 -33 callgsubr
        311 -30 -197 153 -292 hhcurveto
        -320 -207 38 callsubr
        return
      </CharString>
      <CharString index="35">
        21 -21 1027 55 421 54 34 callsubr
        54 return
      </CharString>
      <CharString index="36">
        337 902 337 -902 rlineto
        endchar
      </CharString>
      <CharString index="37">
        rmoveto
        59 631 -302 -55 243 hlineto
        return
      </CharString>
      <CharString index="38">
        48 416 48 237 51 hstem
        125 54 418 53 vstem
        145 return
      </CharString>
      <CharString index="39">
        rmoveto
        32 -575 -50 517 vlineto
        -382 -739 rlineto
        56 hlineto
        endchar
      </CharString>
      <CharString index="40">
        48 433 49 228 50 hstem
        107 53 430 53 vstem
        387 return
      </CharString>
      <CharString index="41">
        -18 21 -21 342 54 719 50 return
      </CharString>
      <CharString index="42">
        472 -59 callgsubr
        180 hmoveto
        -47 callsubr
        return
      </CharString>
      <CharString index="43">
        -37 callsubr
        -154 -28 callgsubr
        return
      </CharString>
      <CharString index="44">
        288 hvcurveto
        21 vlineto
        287 return
      </CharString>
      <CharString index="45">
        1165 return
      </CharString>
      <CharString index="46">
        346 hlineto
        299 221 208 308 hvcurveto
        132 vlineto
        308 -221 209 -298 vhcurveto
        465 -649 rmoveto
        -271 -197 -191 -269 vhcurveto
        -292 return
      </CharString>
      <CharString index="47">
        hhcurveto
        -257 -151 -209 9 callsubr
        150 -221 256 return
      </CharString>
      <CharString index="48">
        -291 rmoveto
        -47 callsubr
        return
      </CharString>
      <CharString index="49">
        45 -26 callsubr
        hstemhm
        31 callsubr
        675 55 hintmask 10110000
        return
      </CharString>
      <CharString index="50">
        90 0 54 668 54 626 4 callsubr
        vstem
        return
      </CharString>
      <CharString index="51">
        21 -21 -39 callsubr
        return
      </CharString>
      <CharString index="52">
        vstem
        948 -49 callgsubr
        -69 hlineto
        -341 -546 -379 546 rlineto
        -70 hlineto
        761 -1102 rlineto
        -719 -55 798 47 hlineto
        -355 511 rlineto
        return
      </CharString>
      <CharString index="53">
        -56 callgsubr
        hstem
        return
      </CharString>
      <CharString index="54">
        -157 -181 55 186 -13 hvcurveto
        -54 hlineto
        -159 143 -136 262 233 147 117 167 170 -110 86 -258 59 vhcurveto
        return
      </CharString>
      <CharString index="55">
        48 714 49 hstem
        94 53 432 53 vstem
        632 return
      </CharString>
      <CharString index="56">
        -616 -46 callgsubr
        203 54 vstem
        return
      </CharString>
      <CharString index="57">
        -20 -35 callgsubr
        return
      </CharString>
      <CharString index="58">
        -49 callsubr
        rmoveto
        return
      </CharString>
      <CharString index="59">
        213 -20 rmoveto
        167 86 88 191 hvcurveto
        898 -342 -55 283 -839 vlineto
        -156 -67 -71 -124 -61 -54 6 9 -32 vhcurveto
        return
      </CharString>
      <CharString index="60">
        -1165 return
      </CharString>
      <CharString index="61">
        -63 callsubr
        hstem
        return
      </CharString>
      <CharString index="62">
        -70 callsubr
        -54 -1361 vlineto
        -940 1361 rlineto
        -55 -54 callsubr
        55 1364 hlineto
        940 -1364 rlineto
        endchar
      </CharString>
      <CharString index="63">
        -70 callsubr
        -54 -54 callsubr
        vlineto
        endchar
      </CharString>
      <CharString index="64">
        vstem
        912 -49 callgsubr
        -753 379 -59 -434 740 hlineto
        -461 -1102 rlineto
        67 hlineto
        466 1122 rlineto
        return
      </CharString>
      <CharString index="65">
        49 474 62 hstem
        489 53 vstem
        689 return
      </CharString>
      <CharString index="66">
        54 vstem
        190 100 rmoveto
        128 -54 -130 -89 callsubr
        return
      </CharString>
      <CharString index="67">
        rmoveto
        -504 854 rlineto
        -72 hlineto
        549 -903 rlineto
        -553 54 553 vlineto
        549 903 rlineto
        -66 hlineto
        endchar
      </CharString>
      <CharString index="68">
        1082 -54 -1082 vlineto
        endchar
      </CharString>
      <CharString index="69">
        -62 callgsubr
        -54 -1072 vlineto
        -798 1072 rlineto
        -54 -47 callgsubr
        54 1075 hlineto
        798 -1075 rlineto
        endchar
      </CharString>
      <CharString index="70">
        238 235 93 -153 -128 39 vhcurveto
        -491 vlineto
        return
      </CharString>
      <CharString index="71">
        -1027 54 1027 return
      </CharString>
      <CharString index="72">
        54 1014 54 return
      </CharString>
      <CharString index="73">
        -281 64 -47 77 111 vvcurveto
        101 89 116 219 214 118 -121 -134 vhcurveto
        55 hlineto
        return
      </CharString>
      <CharString index="74">
        vhcurveto
        54 hlineto
        return
      </CharString>
      <CharString index="75">
        -70 hlineto
        294 -389 -294 -380 rlineto
        70 hlineto
        return
      </CharString>
      <CharString index="76">
        -223 -317 return
      </CharString>
      <CharString index="77">
        392 318 327 423 423 -318 324 -392 hvcurveto
        -1442 vmoveto
        -359 return
      </CharString>
      <CharString index="78">
        -670 21 -21 -9 callgsubr
        return
      </CharString>
      <CharString index="79">
        -188 -55 188 return
      </CharString>
      <CharString index="80">
        342 -21 54 1390 54 hstem
        130 55 1049 54 vstem
        1288 699 rmoveto
        return
      </CharString>
      <CharString index="81">
        1 callgsubr
        -87 callgsubr
        return
      </CharString>
      <CharString index="82">
        hstem
        -28 callsubr
        return
      </CharString>
      <CharString index="83">
        hhcurveto
        256 170 222 330 hvcurveto
        21 32 callgsubr
        -171 209 -257 vhcurveto
        return
      </CharString>
      <CharString index="84">
        hlineto
        268 139 127 208 205 -140 138 -267 hvcurveto
        -623 vmoveto
        return
      </CharString>
      <CharString index="85">
        rmoveto
        -236 -113 209 25 callgsubr
        209 238 return
      </CharString>
      <CharString index="86">
        rmoveto
        -182 -137 -119 -152 -65 hvcurveto
        return
      </CharString>
      <CharString index="87">
        50 hstem
        66 575 vstem
        641 return
      </CharString>
      <CharString index="88">
        -218 vlineto
        -380 return
      </CharString>
      <CharString index="89">
        54 1015 54 hstem
        return
      </CharString>
      <CharString index="90">
        55 529 55 return
      </CharString>
      <CharString index="91">
        -209 -287 hvcurveto
        endchar
      </CharString>
      <CharString index="92">
        rmoveto
        31 24 25 31 31 -24 24 -31 -31 -25 -24 -31 -31 25 -25 31 hvcurveto
        return
      </CharString>
      <CharString index="93">
        1347 rmoveto
        391 56 -391 hlineto
        return
      </CharString>
      <CharString index="94">
        42 vlineto
        253 return
      </CharString>
      <CharString index="95">
        59 vstem
        705 -416 rmoveto
        59 1573 -704 -55 645 hlineto
        return
      </CharString>
      <CharString index="96">
        55 -25 callgsubr
        758 54 vstem
        517 -18 callsubr
        -347 return
      </CharString>
      <CharString index="97">
        -31 callgsubr
        hvcurveto
        -42 vlineto
        return
      </CharString>
      <CharString index="98">
        33 callgsubr
        54 vstem
        return
      </CharString>
      <CharString index="99">
        111 vstem
        return
      </CharString>
      <CharString index="100">
        -294 70 -81 82 121 vvcurveto
        124 130 109 232 return
      </CharString>
      <CharString index="101">
        -152 -78 callgsubr
        return
      </CharString>
      <CharString index="102">
        -226 -136 -122 -151 -177 124 -68 242 -52 return
      </CharString>
      <CharString index="103">
        21 -21 1049 53 hstem
        32 callsubr
        return
      </CharString>
      <CharString index="104">
        hstem
        200 return
      </CharString>
      <CharString index="105">
        156 rmoveto
        504 -499 -55 445 -424 vlineto
        -59 return
      </CharString>
      <CharString index="106">
        1557 rmoveto
        37 callgsubr
        -154 return
      </CharString>
      <CharString index="107">
        349 hlineto
        313 234 -243 -339 hvcurveto
        endchar
      </CharString>
      <CharString index="108">
        31 -25 25 -31 -100 callsubr
        return
      </CharString>
      <CharString index="109">
        -1076 -481 111 return
      </CharString>
      <CharString index="110">
        1270 266 hstem
        return
      </CharString>
      <CharString index="111">
        54 27 -5 -10 38 return
      </CharString>
      <CharString index="112">
        -571 rmoveto
        -288 return
      </CharString>
      <CharString index="113">
        146 hlineto
        -4 -93 -28 2 -42 vvcurveto
        -87 callgsubr
        return
      </CharString>
      <CharString index="114" raw="1">
        16201d0b   
      </CharString>
      <CharString index="115">
        1286 55 -55 186 -61 54 7 -20 hstemhm
        return
      </CharString>
      <CharString index="116">
        -64 callsubr
        endchar
      </CharString>
      <CharString index="117">
        hstem
        379 54 vstem
        433 return
      </CharString>
      <CharString index="118">
        hstem
        133 55 return
      </CharString>
      <CharString index="119">
        23 callsubr
        hstem
        return
      </CharString>
      <CharString index="120">
        -167 -217 hvcurveto
        -33 -754 vlineto
        236 return
      </CharString>
      <CharString index="121">
        -203 893 rcurveline
        -59 hlineto
        205 -903 return
      </CharString>
      <CharString index="122">
        -54 vlineto
        endchar
      </CharString>
      <CharString index="123">
        -1076 1221 54 196 -20 hstem
        return
      </CharString>
      <CharString index="124">
        -179 -230 69 223 hvcurveto
        -53 hlineto
        return
      </CharString>
      <CharString index="125">
        45 -20 53 870 54 465 54 hstem
        return
      </CharString>
      <CharString index="126">
        -52 134 123 -25 107 hhcurveto
        271 return
      </CharString>
      <CharString index="127">
        89 -14 57 463 57 return
      </CharString>
      <CharString index="128">
        -20 -44 callsubr
        vstem
        return
      </CharString>
      <CharString index="129">
        hstem
        185 54 return
      </CharString>
      <CharString index="130">
        1402 return
      </CharString>
      <CharString index="131">
        1536 return
      </CharString>
      <CharString index="132">
        -63 callgsubr
        113 return
      </CharString>
      <CharString index="133">
        -186 157 -75 256 -64 vhcurveto
        return
      </CharString>
      <CharString index="134">
        2 callgsubr
        79 111 return
      </CharString>
      <CharString index="135">
        vlineto
        -416 246 -304 334 return
      </CharString>
      <CharString index="136">
        -79 callgsubr
        269 59 return
      </CharString>
      <CharString index="137">
        194 -171 84 -248 60 vhcurveto
        return
      </CharString>
      <CharString index="138">
        rmoveto
        331 10 callsubr
      </CharString>
      <CharString index="139">
        vlineto
        341 return
      </CharString>
      <CharString index="140">
        hstem
        181 return
      </CharString>
      <CharString index="141">
        8 52 rlineto
        return
      </CharString>
      <CharString index="142">
        vlineto
        -259 return
      </CharString>
      <CharString index="143">
        222 143 -124 -167 return
      </CharString>
      <CharString index="144">
        -176 -107 -37 callsubr
        return
      </CharString>
      <CharString index="145">
        -14 -21 67 hvcurveto
        58 vlineto
        19 -76 return
      </CharString>
      <CharString index="146">
        42 -29 -2 -4 93 return
      </CharString>
</ttFont>
